G04 #@! TF.FileFunction,Legend,Top*
%FSLAX46Y46*%
G04 Gerber Fmt 4.6, Leading zero omitted, Abs format (unit mm)*
G04 Created by KiCad (PCBNEW (2015-08-27 BZR 6130, Git 51a6d38)-product) date 1/29/2016 1:51:44 AM*
%MOMM*%
G01*
G04 APERTURE LIST*
%ADD10C,0.100000*%
%ADD11C,0.150000*%
%ADD12C,0.381000*%
%ADD13C,0.254000*%
G04 APERTURE END LIST*
D10*
D11*
X161290000Y-124460000D02*
X133350000Y-124460000D01*
X133350000Y-124460000D02*
X133350000Y-121920000D01*
X133350000Y-121920000D02*
X161290000Y-121920000D01*
X164110000Y-124740000D02*
X162560000Y-124740000D01*
X161290000Y-124460000D02*
X161290000Y-121920000D01*
X162560000Y-121640000D02*
X164110000Y-121640000D01*
X164110000Y-121640000D02*
X164110000Y-124740000D01*
X156210000Y-109280000D02*
X156210000Y-116780000D01*
X140970000Y-109280000D02*
X140970000Y-116780000D01*
X156210000Y-109280000D02*
X140970000Y-109280000D01*
X140970000Y-112395000D02*
X142240000Y-112395000D01*
X142240000Y-112395000D02*
X142240000Y-113665000D01*
X142240000Y-113665000D02*
X140970000Y-113665000D01*
X140970000Y-116780000D02*
X156210000Y-116780000D01*
D12*
X164020000Y-69660000D02*
X156020000Y-69660000D01*
X156020000Y-69660000D02*
X156020000Y-77660000D01*
X156020000Y-77660000D02*
X164020000Y-77660000D01*
X164020000Y-77660000D02*
X164020000Y-69660000D01*
X153860000Y-69660000D02*
X145860000Y-69660000D01*
X145860000Y-69660000D02*
X145860000Y-77660000D01*
X145860000Y-77660000D02*
X153860000Y-77660000D01*
X153860000Y-77660000D02*
X153860000Y-69660000D01*
X142430000Y-69660000D02*
X134430000Y-69660000D01*
X134430000Y-69660000D02*
X134430000Y-77660000D01*
X134430000Y-77660000D02*
X142430000Y-77660000D01*
X142430000Y-77660000D02*
X142430000Y-69660000D01*
D11*
X164285000Y-112290000D02*
X164285000Y-108690000D01*
X160835000Y-108690000D02*
X160835000Y-112290000D01*
X145235000Y-102130000D02*
X145235000Y-98530000D01*
X141785000Y-98530000D02*
X141785000Y-102130000D01*
X137615000Y-112290000D02*
X137615000Y-108690000D01*
X134165000Y-108690000D02*
X134165000Y-112290000D01*
X160020000Y-83766660D02*
X160020000Y-81734660D01*
X160020000Y-102054660D02*
X160020000Y-103578660D01*
X163830000Y-84020660D02*
X156210000Y-84020660D01*
X156210000Y-84020660D02*
X156210000Y-101800660D01*
X156210000Y-101800660D02*
X163830000Y-101800660D01*
X163830000Y-101800660D02*
X163830000Y-84020660D01*
X149860000Y-83766660D02*
X149860000Y-81734660D01*
X149860000Y-102054660D02*
X149860000Y-103578660D01*
X153670000Y-84020660D02*
X146050000Y-84020660D01*
X146050000Y-84020660D02*
X146050000Y-101800660D01*
X146050000Y-101800660D02*
X153670000Y-101800660D01*
X153670000Y-101800660D02*
X153670000Y-84020660D01*
X137160000Y-83766660D02*
X137160000Y-81734660D01*
X137160000Y-102054660D02*
X137160000Y-103578660D01*
X140970000Y-84020660D02*
X133350000Y-84020660D01*
X133350000Y-84020660D02*
X133350000Y-101800660D01*
X133350000Y-101800660D02*
X140970000Y-101800660D01*
X140970000Y-101800660D02*
X140970000Y-84020660D01*
X162583905Y-120975381D02*
X162583905Y-119975381D01*
X162964858Y-119975381D01*
X163060096Y-120023000D01*
X163107715Y-120070619D01*
X163155334Y-120165857D01*
X163155334Y-120308714D01*
X163107715Y-120403952D01*
X163060096Y-120451571D01*
X162964858Y-120499190D01*
X162583905Y-120499190D01*
X164107715Y-120975381D02*
X163536286Y-120975381D01*
X163822000Y-120975381D02*
X163822000Y-119975381D01*
X163726762Y-120118238D01*
X163631524Y-120213476D01*
X163536286Y-120261095D01*
X147828095Y-110958381D02*
X147828095Y-111767905D01*
X147875714Y-111863143D01*
X147923333Y-111910762D01*
X148018571Y-111958381D01*
X148209048Y-111958381D01*
X148304286Y-111910762D01*
X148351905Y-111863143D01*
X148399524Y-111767905D01*
X148399524Y-110958381D01*
X149399524Y-111958381D02*
X148828095Y-111958381D01*
X149113809Y-111958381D02*
X149113809Y-110958381D01*
X149018571Y-111101238D01*
X148923333Y-111196476D01*
X148828095Y-111244095D01*
D13*
X156222096Y-79072619D02*
X156222096Y-78056619D01*
X156609143Y-78056619D01*
X156705905Y-78105000D01*
X156754286Y-78153381D01*
X156802667Y-78250143D01*
X156802667Y-78395286D01*
X156754286Y-78492048D01*
X156705905Y-78540429D01*
X156609143Y-78588810D01*
X156222096Y-78588810D01*
X157189715Y-78153381D02*
X157238096Y-78105000D01*
X157334858Y-78056619D01*
X157576762Y-78056619D01*
X157673524Y-78105000D01*
X157721905Y-78153381D01*
X157770286Y-78250143D01*
X157770286Y-78346905D01*
X157721905Y-78492048D01*
X157141334Y-79072619D01*
X157770286Y-79072619D01*
X145935096Y-79199619D02*
X145935096Y-78183619D01*
X146322143Y-78183619D01*
X146418905Y-78232000D01*
X146467286Y-78280381D01*
X146515667Y-78377143D01*
X146515667Y-78522286D01*
X146467286Y-78619048D01*
X146418905Y-78667429D01*
X146322143Y-78715810D01*
X145935096Y-78715810D01*
X146854334Y-78183619D02*
X147483286Y-78183619D01*
X147144620Y-78570667D01*
X147289762Y-78570667D01*
X147386524Y-78619048D01*
X147434905Y-78667429D01*
X147483286Y-78764190D01*
X147483286Y-79006095D01*
X147434905Y-79102857D01*
X147386524Y-79151238D01*
X147289762Y-79199619D01*
X146999477Y-79199619D01*
X146902715Y-79151238D01*
X146854334Y-79102857D01*
X140855096Y-79199619D02*
X140855096Y-78183619D01*
X141242143Y-78183619D01*
X141338905Y-78232000D01*
X141387286Y-78280381D01*
X141435667Y-78377143D01*
X141435667Y-78522286D01*
X141387286Y-78619048D01*
X141338905Y-78667429D01*
X141242143Y-78715810D01*
X140855096Y-78715810D01*
X142306524Y-78522286D02*
X142306524Y-79199619D01*
X142064620Y-78135238D02*
X141822715Y-78860952D01*
X142451667Y-78860952D01*
D11*
X163028334Y-106656143D02*
X162980715Y-106703762D01*
X162837858Y-106751381D01*
X162742620Y-106751381D01*
X162599762Y-106703762D01*
X162504524Y-106608524D01*
X162456905Y-106513286D01*
X162409286Y-106322810D01*
X162409286Y-106179952D01*
X162456905Y-105989476D01*
X162504524Y-105894238D01*
X162599762Y-105799000D01*
X162742620Y-105751381D01*
X162837858Y-105751381D01*
X162980715Y-105799000D01*
X163028334Y-105846619D01*
X163980715Y-106751381D02*
X163409286Y-106751381D01*
X163695000Y-106751381D02*
X163695000Y-105751381D01*
X163599762Y-105894238D01*
X163504524Y-105989476D01*
X163409286Y-106037095D01*
X146867143Y-100496666D02*
X146914762Y-100544285D01*
X146962381Y-100687142D01*
X146962381Y-100782380D01*
X146914762Y-100925238D01*
X146819524Y-101020476D01*
X146724286Y-101068095D01*
X146533810Y-101115714D01*
X146390952Y-101115714D01*
X146200476Y-101068095D01*
X146105238Y-101020476D01*
X146010000Y-100925238D01*
X145962381Y-100782380D01*
X145962381Y-100687142D01*
X146010000Y-100544285D01*
X146057619Y-100496666D01*
X146057619Y-100115714D02*
X146010000Y-100068095D01*
X145962381Y-99972857D01*
X145962381Y-99734761D01*
X146010000Y-99639523D01*
X146057619Y-99591904D01*
X146152857Y-99544285D01*
X146248095Y-99544285D01*
X146390952Y-99591904D01*
X146962381Y-100163333D01*
X146962381Y-99544285D01*
X134961334Y-106656143D02*
X134913715Y-106703762D01*
X134770858Y-106751381D01*
X134675620Y-106751381D01*
X134532762Y-106703762D01*
X134437524Y-106608524D01*
X134389905Y-106513286D01*
X134342286Y-106322810D01*
X134342286Y-106179952D01*
X134389905Y-105989476D01*
X134437524Y-105894238D01*
X134532762Y-105799000D01*
X134675620Y-105751381D01*
X134770858Y-105751381D01*
X134913715Y-105799000D01*
X134961334Y-105846619D01*
X135294667Y-105751381D02*
X135913715Y-105751381D01*
X135580381Y-106132333D01*
X135723239Y-106132333D01*
X135818477Y-106179952D01*
X135866096Y-106227571D01*
X135913715Y-106322810D01*
X135913715Y-106560905D01*
X135866096Y-106656143D01*
X135818477Y-106703762D01*
X135723239Y-106751381D01*
X135437524Y-106751381D01*
X135342286Y-106703762D01*
X135294667Y-106656143D01*
X156805334Y-83510381D02*
X156472000Y-83034190D01*
X156233905Y-83510381D02*
X156233905Y-82510381D01*
X156614858Y-82510381D01*
X156710096Y-82558000D01*
X156757715Y-82605619D01*
X156805334Y-82700857D01*
X156805334Y-82843714D01*
X156757715Y-82938952D01*
X156710096Y-82986571D01*
X156614858Y-83034190D01*
X156233905Y-83034190D01*
X157757715Y-83510381D02*
X157186286Y-83510381D01*
X157472000Y-83510381D02*
X157472000Y-82510381D01*
X157376762Y-82653238D01*
X157281524Y-82748476D01*
X157186286Y-82796095D01*
X146645334Y-83637381D02*
X146312000Y-83161190D01*
X146073905Y-83637381D02*
X146073905Y-82637381D01*
X146454858Y-82637381D01*
X146550096Y-82685000D01*
X146597715Y-82732619D01*
X146645334Y-82827857D01*
X146645334Y-82970714D01*
X146597715Y-83065952D01*
X146550096Y-83113571D01*
X146454858Y-83161190D01*
X146073905Y-83161190D01*
X147026286Y-82732619D02*
X147073905Y-82685000D01*
X147169143Y-82637381D01*
X147407239Y-82637381D01*
X147502477Y-82685000D01*
X147550096Y-82732619D01*
X147597715Y-82827857D01*
X147597715Y-82923095D01*
X147550096Y-83065952D01*
X146978667Y-83637381D01*
X147597715Y-83637381D01*
X134199334Y-83637381D02*
X133866000Y-83161190D01*
X133627905Y-83637381D02*
X133627905Y-82637381D01*
X134008858Y-82637381D01*
X134104096Y-82685000D01*
X134151715Y-82732619D01*
X134199334Y-82827857D01*
X134199334Y-82970714D01*
X134151715Y-83065952D01*
X134104096Y-83113571D01*
X134008858Y-83161190D01*
X133627905Y-83161190D01*
X134532667Y-82637381D02*
X135151715Y-82637381D01*
X134818381Y-83018333D01*
X134961239Y-83018333D01*
X135056477Y-83065952D01*
X135104096Y-83113571D01*
X135151715Y-83208810D01*
X135151715Y-83446905D01*
X135104096Y-83542143D01*
X135056477Y-83589762D01*
X134961239Y-83637381D01*
X134675524Y-83637381D01*
X134580286Y-83589762D01*
X134532667Y-83542143D01*
M02*
