G04 #@! TF.FileFunction,Copper,L1,Top,Signal*
%FSLAX46Y46*%
G04 Gerber Fmt 4.6, Leading zero omitted, Abs format (unit mm)*
G04 Created by KiCad (PCBNEW (2015-08-27 BZR 6130, Git 51a6d38)-product) date 1/29/2016 1:51:44 AM*
%MOMM*%
G01*
G04 APERTURE LIST*
%ADD10C,0.100000*%
%ADD11R,1.727200X2.032000*%
%ADD12O,1.727200X2.032000*%
%ADD13R,0.762000X1.524000*%
%ADD14C,2.400000*%
%ADD15C,2.500000*%
%ADD16R,3.000000X1.000000*%
%ADD17C,1.998980*%
%ADD18C,2.301240*%
%ADD19C,0.400000*%
%ADD20C,0.254000*%
G04 APERTURE END LIST*
D10*
D11*
X162560000Y-123190000D03*
D12*
X160020000Y-123190000D03*
X157480000Y-123190000D03*
X154940000Y-123190000D03*
X152400000Y-123190000D03*
X149860000Y-123190000D03*
X147320000Y-123190000D03*
X144780000Y-123190000D03*
X142240000Y-123190000D03*
X139700000Y-123190000D03*
X137160000Y-123190000D03*
X134620000Y-123190000D03*
D13*
X141605000Y-117480000D03*
X142875000Y-117480000D03*
X144145000Y-117480000D03*
X145415000Y-117480000D03*
X146685000Y-117480000D03*
X147955000Y-117480000D03*
X149225000Y-117480000D03*
X150495000Y-117480000D03*
X151765000Y-117480000D03*
X153035000Y-117480000D03*
X154305000Y-117480000D03*
X155702000Y-117480000D03*
X141605000Y-108580000D03*
X142875000Y-108580000D03*
X144145000Y-108580000D03*
X145415000Y-108580000D03*
X146685000Y-108580000D03*
X147955000Y-108580000D03*
X149225000Y-108580000D03*
X150495000Y-108580000D03*
X151765000Y-108580000D03*
X153035000Y-108580000D03*
X154305000Y-108580000D03*
X155575000Y-108580000D03*
D14*
X160020000Y-73660000D03*
D15*
X157480000Y-71120000D03*
X162560000Y-71120000D03*
X162560000Y-76200000D03*
X157480000Y-76200000D03*
D14*
X149860000Y-73660000D03*
D15*
X147320000Y-71120000D03*
X152400000Y-71120000D03*
X152400000Y-76200000D03*
X147320000Y-76200000D03*
D14*
X138430000Y-73660000D03*
D15*
X135890000Y-71120000D03*
X140970000Y-71120000D03*
X140970000Y-76200000D03*
X135890000Y-76200000D03*
D16*
X162560000Y-108190000D03*
X162560000Y-112790000D03*
X143510000Y-98030000D03*
X143510000Y-102630000D03*
X135890000Y-108190000D03*
X135890000Y-112790000D03*
D17*
X160020000Y-80210660D03*
D18*
X160020000Y-105209340D03*
D17*
X149860000Y-80210660D03*
D18*
X149860000Y-105209340D03*
D17*
X137160000Y-80210660D03*
D18*
X137160000Y-105209340D03*
D19*
X160020000Y-123190000D02*
X160020000Y-122555000D01*
X160020000Y-122555000D02*
X159385000Y-121920000D01*
X159385000Y-121920000D02*
X159385000Y-114935000D01*
X159385000Y-114935000D02*
X157480000Y-113030000D01*
X157480000Y-113030000D02*
X145415000Y-113030000D01*
X145415000Y-113030000D02*
X142240000Y-109855000D01*
X142240000Y-109855000D02*
X142240000Y-108580000D01*
X141605000Y-108580000D02*
X142240000Y-108580000D01*
X142240000Y-108580000D02*
X142875000Y-108580000D01*
X154305000Y-108580000D02*
X155575000Y-108580000D01*
X154305000Y-117480000D02*
X154305000Y-118364000D01*
X154305000Y-118364000D02*
X155575000Y-119634000D01*
X157480000Y-120777000D02*
X157480000Y-123190000D01*
X156337000Y-119634000D02*
X157480000Y-120777000D01*
X155575000Y-119634000D02*
X156337000Y-119634000D01*
X154305000Y-117480000D02*
X154305000Y-118110000D01*
X153035000Y-117480000D02*
X153035000Y-119126000D01*
X153035000Y-119126000D02*
X154940000Y-121031000D01*
X154940000Y-121031000D02*
X154940000Y-123190000D01*
X151765000Y-117480000D02*
X151765000Y-122555000D01*
X151765000Y-122555000D02*
X152400000Y-123190000D01*
X150495000Y-117480000D02*
X150495000Y-122555000D01*
X150495000Y-122555000D02*
X149860000Y-123190000D01*
X149225000Y-117480000D02*
X149225000Y-121285000D01*
X149225000Y-121285000D02*
X147320000Y-123190000D01*
X147955000Y-117480000D02*
X147955000Y-118999000D01*
X147955000Y-118999000D02*
X144780000Y-122174000D01*
X144780000Y-122174000D02*
X144780000Y-123190000D01*
X146685000Y-117480000D02*
X146685000Y-118745000D01*
X146685000Y-118745000D02*
X142240000Y-123190000D01*
X146685000Y-117480000D02*
X146685000Y-118110000D01*
X145415000Y-117480000D02*
X145415000Y-118237000D01*
X145415000Y-118237000D02*
X142494000Y-121158000D01*
X142494000Y-121158000D02*
X141224000Y-121158000D01*
X141224000Y-121158000D02*
X139700000Y-122682000D01*
X139700000Y-122682000D02*
X139700000Y-123190000D01*
X144145000Y-117480000D02*
X144145000Y-118237000D01*
X144145000Y-118237000D02*
X142494000Y-119888000D01*
X142494000Y-119888000D02*
X140462000Y-119888000D01*
X140462000Y-119888000D02*
X137160000Y-123190000D01*
X142875000Y-117480000D02*
X142875000Y-118237000D01*
X142875000Y-118237000D02*
X142113000Y-118999000D01*
X142113000Y-118999000D02*
X138811000Y-118999000D01*
X138811000Y-118999000D02*
X134620000Y-123190000D01*
X160020000Y-105209340D02*
X160020000Y-105650000D01*
X160020000Y-105650000D02*
X162560000Y-108190000D01*
X160020000Y-73660000D02*
X160020000Y-76962000D01*
X160020000Y-86995000D02*
X160020000Y-105209340D01*
X157607000Y-84582000D02*
X160020000Y-86995000D01*
X157607000Y-79375000D02*
X157607000Y-84582000D01*
X160020000Y-76962000D02*
X157607000Y-79375000D01*
X151765000Y-108580000D02*
X151765000Y-109601000D01*
X161276000Y-111506000D02*
X162560000Y-112790000D01*
X153670000Y-111506000D02*
X161276000Y-111506000D01*
X151765000Y-109601000D02*
X153670000Y-111506000D01*
X151765000Y-108580000D02*
X153035000Y-108580000D01*
X143510000Y-98030000D02*
X149860000Y-98030000D01*
X149860000Y-98030000D02*
X149860000Y-97917000D01*
X149860000Y-105209340D02*
X149860000Y-97917000D01*
X149860000Y-97917000D02*
X149860000Y-83185000D01*
X149860000Y-77343000D02*
X149860000Y-73660000D01*
X147955000Y-79248000D02*
X149860000Y-77343000D01*
X147955000Y-81280000D02*
X147955000Y-79248000D01*
X149860000Y-83185000D02*
X147955000Y-81280000D01*
X149225000Y-108580000D02*
X149225000Y-107696000D01*
X143510000Y-103505000D02*
X143510000Y-102630000D01*
X144907000Y-104902000D02*
X143510000Y-103505000D01*
X146431000Y-104902000D02*
X144907000Y-104902000D01*
X149225000Y-107696000D02*
X146431000Y-104902000D01*
X149225000Y-108580000D02*
X150495000Y-108580000D01*
X135890000Y-108190000D02*
X135890000Y-106479340D01*
X135890000Y-106479340D02*
X137160000Y-105209340D01*
X137160000Y-105209340D02*
X137160000Y-85979000D01*
X138430000Y-77470000D02*
X138430000Y-73660000D01*
X139192000Y-78232000D02*
X138430000Y-77470000D01*
X139192000Y-83947000D02*
X139192000Y-78232000D01*
X137160000Y-85979000D02*
X139192000Y-83947000D01*
X135890000Y-112790000D02*
X135890000Y-111506000D01*
X147320000Y-107950000D02*
X147320000Y-108580000D01*
X146304000Y-106934000D02*
X147320000Y-107950000D01*
X140462000Y-106934000D02*
X146304000Y-106934000D01*
X135890000Y-111506000D02*
X140462000Y-106934000D01*
X146685000Y-108580000D02*
X147320000Y-108580000D01*
X147320000Y-108580000D02*
X147955000Y-108580000D01*
D20*
G36*
X164973000Y-125020000D02*
X159512000Y-125020000D01*
X159512000Y-124772298D01*
X160020000Y-124873345D01*
X160593489Y-124759271D01*
X161079670Y-124434415D01*
X161094500Y-124412220D01*
X161158073Y-124565698D01*
X161336701Y-124744327D01*
X161570090Y-124841000D01*
X162274250Y-124841000D01*
X162433000Y-124682250D01*
X162433000Y-123317000D01*
X162687000Y-123317000D01*
X162687000Y-124682250D01*
X162845750Y-124841000D01*
X163549910Y-124841000D01*
X163783299Y-124744327D01*
X163961927Y-124565698D01*
X164058600Y-124332309D01*
X164058600Y-123475750D01*
X163899850Y-123317000D01*
X162687000Y-123317000D01*
X162433000Y-123317000D01*
X162413000Y-123317000D01*
X162413000Y-123063000D01*
X162433000Y-123063000D01*
X162433000Y-121697750D01*
X162687000Y-121697750D01*
X162687000Y-123063000D01*
X163899850Y-123063000D01*
X164058600Y-122904250D01*
X164058600Y-122047691D01*
X163961927Y-121814302D01*
X163783299Y-121635673D01*
X163549910Y-121539000D01*
X162845750Y-121539000D01*
X162687000Y-121697750D01*
X162433000Y-121697750D01*
X162274250Y-121539000D01*
X161570090Y-121539000D01*
X161336701Y-121635673D01*
X161158073Y-121814302D01*
X161094500Y-121967780D01*
X161079670Y-121945585D01*
X160593489Y-121620729D01*
X160220000Y-121546437D01*
X160220000Y-114935000D01*
X160156439Y-114615459D01*
X159975434Y-114344566D01*
X158070434Y-112439566D01*
X157922920Y-112341000D01*
X160412560Y-112341000D01*
X160412560Y-113290000D01*
X160456838Y-113525317D01*
X160595910Y-113741441D01*
X160808110Y-113886431D01*
X161060000Y-113937440D01*
X164060000Y-113937440D01*
X164295317Y-113893162D01*
X164511441Y-113754090D01*
X164656431Y-113541890D01*
X164707440Y-113290000D01*
X164707440Y-112290000D01*
X164663162Y-112054683D01*
X164524090Y-111838559D01*
X164311890Y-111693569D01*
X164060000Y-111642560D01*
X162593428Y-111642560D01*
X161866434Y-110915566D01*
X161595541Y-110734561D01*
X161276000Y-110671000D01*
X154015868Y-110671000D01*
X153334308Y-109989440D01*
X153416000Y-109989440D01*
X153651317Y-109945162D01*
X153678539Y-109927645D01*
X153797691Y-109977000D01*
X154019250Y-109977000D01*
X154178000Y-109818250D01*
X154178000Y-108707000D01*
X154432000Y-108707000D01*
X154432000Y-109818250D01*
X154590750Y-109977000D01*
X154812309Y-109977000D01*
X154940000Y-109924109D01*
X155067691Y-109977000D01*
X155289250Y-109977000D01*
X155448000Y-109818250D01*
X155448000Y-108707000D01*
X155702000Y-108707000D01*
X155702000Y-109818250D01*
X155860750Y-109977000D01*
X156082309Y-109977000D01*
X156315698Y-109880327D01*
X156494327Y-109701699D01*
X156591000Y-109468310D01*
X156591000Y-108865750D01*
X156432250Y-108707000D01*
X155702000Y-108707000D01*
X155448000Y-108707000D01*
X154432000Y-108707000D01*
X154178000Y-108707000D01*
X154158000Y-108707000D01*
X154158000Y-108453000D01*
X154178000Y-108453000D01*
X154178000Y-107341750D01*
X154432000Y-107341750D01*
X154432000Y-108453000D01*
X155448000Y-108453000D01*
X155448000Y-107341750D01*
X155702000Y-107341750D01*
X155702000Y-108453000D01*
X156432250Y-108453000D01*
X156591000Y-108294250D01*
X156591000Y-107691690D01*
X156494327Y-107458301D01*
X156315698Y-107279673D01*
X156082309Y-107183000D01*
X155860750Y-107183000D01*
X155702000Y-107341750D01*
X155448000Y-107341750D01*
X155289250Y-107183000D01*
X155067691Y-107183000D01*
X154940000Y-107235891D01*
X154812309Y-107183000D01*
X154590750Y-107183000D01*
X154432000Y-107341750D01*
X154178000Y-107341750D01*
X154019250Y-107183000D01*
X153797691Y-107183000D01*
X153681737Y-107231030D01*
X153667890Y-107221569D01*
X153416000Y-107170560D01*
X152654000Y-107170560D01*
X152418683Y-107214838D01*
X152402901Y-107224993D01*
X152397890Y-107221569D01*
X152146000Y-107170560D01*
X151384000Y-107170560D01*
X151148683Y-107214838D01*
X151132901Y-107224993D01*
X151127890Y-107221569D01*
X150876000Y-107170560D01*
X150114000Y-107170560D01*
X149887357Y-107213206D01*
X149815434Y-107105566D01*
X149704693Y-106994825D01*
X150213623Y-106995269D01*
X150870151Y-106723997D01*
X151372892Y-106222133D01*
X151645309Y-105566080D01*
X151645929Y-104855717D01*
X151374657Y-104199189D01*
X150872793Y-103696448D01*
X150695000Y-103622622D01*
X150695000Y-83185000D01*
X150631439Y-82865459D01*
X150450434Y-82594566D01*
X149707775Y-81851907D01*
X150245377Y-81832001D01*
X150733958Y-81629625D01*
X150832557Y-81362823D01*
X149860000Y-80390265D01*
X149845858Y-80404408D01*
X149666252Y-80224802D01*
X149680395Y-80210660D01*
X150039605Y-80210660D01*
X151012163Y-81183217D01*
X151278965Y-81084618D01*
X151505401Y-80475078D01*
X151481341Y-79825283D01*
X151278965Y-79336702D01*
X151012163Y-79238103D01*
X150039605Y-80210660D01*
X149680395Y-80210660D01*
X149666252Y-80196518D01*
X149845858Y-80016912D01*
X149860000Y-80031055D01*
X150832557Y-79058497D01*
X150733958Y-78791695D01*
X150124418Y-78565259D01*
X149806850Y-78577018D01*
X150450434Y-77933434D01*
X150584066Y-77733439D01*
X150631439Y-77662541D01*
X150657142Y-77533320D01*
X151246285Y-77533320D01*
X151375533Y-77826123D01*
X152075806Y-78094388D01*
X152825435Y-78074250D01*
X153424467Y-77826123D01*
X153553715Y-77533320D01*
X152400000Y-76379605D01*
X151246285Y-77533320D01*
X150657142Y-77533320D01*
X150695000Y-77343000D01*
X150695000Y-77034041D01*
X150773877Y-77224467D01*
X151066680Y-77353715D01*
X152220395Y-76200000D01*
X152579605Y-76200000D01*
X153733320Y-77353715D01*
X154026123Y-77224467D01*
X154294388Y-76524194D01*
X154276970Y-75875806D01*
X155585612Y-75875806D01*
X155605750Y-76625435D01*
X155853877Y-77224467D01*
X156146680Y-77353715D01*
X157300395Y-76200000D01*
X156146680Y-75046285D01*
X155853877Y-75175533D01*
X155585612Y-75875806D01*
X154276970Y-75875806D01*
X154274250Y-75774565D01*
X154026123Y-75175533D01*
X153733320Y-75046285D01*
X152579605Y-76200000D01*
X152220395Y-76200000D01*
X152206253Y-76185858D01*
X152385858Y-76006253D01*
X152400000Y-76020395D01*
X153553715Y-74866680D01*
X153424467Y-74573877D01*
X152724194Y-74305612D01*
X151974565Y-74325750D01*
X151486524Y-74527903D01*
X151694681Y-74026605D01*
X151695318Y-73296597D01*
X151485231Y-72788147D01*
X152075806Y-73014388D01*
X152825435Y-72994250D01*
X153424467Y-72746123D01*
X153553715Y-72453320D01*
X156326285Y-72453320D01*
X156455533Y-72746123D01*
X157155806Y-73014388D01*
X157905435Y-72994250D01*
X158393476Y-72792097D01*
X158185319Y-73293395D01*
X158184682Y-74023403D01*
X158394769Y-74531853D01*
X157804194Y-74305612D01*
X157054565Y-74325750D01*
X156455533Y-74573877D01*
X156326285Y-74866680D01*
X157480000Y-76020395D01*
X157494143Y-76006253D01*
X157673748Y-76185858D01*
X157659605Y-76200000D01*
X157673748Y-76214143D01*
X157494143Y-76393748D01*
X157480000Y-76379605D01*
X156326285Y-77533320D01*
X156455533Y-77826123D01*
X157155806Y-78094388D01*
X157721953Y-78079179D01*
X157016566Y-78784566D01*
X156835561Y-79055459D01*
X156772000Y-79375000D01*
X156772000Y-84582000D01*
X156835561Y-84901541D01*
X156997567Y-85144000D01*
X157016566Y-85172434D01*
X159185000Y-87340868D01*
X159185000Y-103622312D01*
X159009849Y-103694683D01*
X158507108Y-104196547D01*
X158234691Y-104852600D01*
X158234071Y-105562963D01*
X158505343Y-106219491D01*
X159007207Y-106722232D01*
X159663260Y-106994649D01*
X160184236Y-106995104D01*
X160530007Y-107340875D01*
X160463569Y-107438110D01*
X160412560Y-107690000D01*
X160412560Y-108690000D01*
X160456838Y-108925317D01*
X160595910Y-109141441D01*
X160808110Y-109286431D01*
X161060000Y-109337440D01*
X164060000Y-109337440D01*
X164295317Y-109293162D01*
X164511441Y-109154090D01*
X164656431Y-108941890D01*
X164707440Y-108690000D01*
X164707440Y-107690000D01*
X164663162Y-107454683D01*
X164524090Y-107238559D01*
X164311890Y-107093569D01*
X164060000Y-107042560D01*
X162593428Y-107042560D01*
X161603341Y-106052473D01*
X161805309Y-105566080D01*
X161805929Y-104855717D01*
X161534657Y-104199189D01*
X161032793Y-103696448D01*
X160855000Y-103622622D01*
X160855000Y-86995000D01*
X160791439Y-86675459D01*
X160610434Y-86404566D01*
X158442000Y-84236132D01*
X158442000Y-81362823D01*
X159047443Y-81362823D01*
X159146042Y-81629625D01*
X159755582Y-81856061D01*
X160405377Y-81832001D01*
X160893958Y-81629625D01*
X160992557Y-81362823D01*
X160020000Y-80390265D01*
X159047443Y-81362823D01*
X158442000Y-81362823D01*
X158442000Y-80700672D01*
X158601035Y-81084618D01*
X158867837Y-81183217D01*
X159840395Y-80210660D01*
X160199605Y-80210660D01*
X161172163Y-81183217D01*
X161438965Y-81084618D01*
X161665401Y-80475078D01*
X161641341Y-79825283D01*
X161438965Y-79336702D01*
X161172163Y-79238103D01*
X160199605Y-80210660D01*
X159840395Y-80210660D01*
X159826252Y-80196518D01*
X160005858Y-80016912D01*
X160020000Y-80031055D01*
X160992557Y-79058497D01*
X160893958Y-78791695D01*
X160284418Y-78565259D01*
X159634623Y-78589319D01*
X159530363Y-78632505D01*
X160610434Y-77552434D01*
X160623206Y-77533320D01*
X161406285Y-77533320D01*
X161535533Y-77826123D01*
X162235806Y-78094388D01*
X162985435Y-78074250D01*
X163584467Y-77826123D01*
X163713715Y-77533320D01*
X162560000Y-76379605D01*
X161406285Y-77533320D01*
X160623206Y-77533320D01*
X160791439Y-77281541D01*
X160845319Y-77010669D01*
X160933877Y-77224467D01*
X161226680Y-77353715D01*
X162380395Y-76200000D01*
X162739605Y-76200000D01*
X163893320Y-77353715D01*
X164186123Y-77224467D01*
X164454388Y-76524194D01*
X164434250Y-75774565D01*
X164186123Y-75175533D01*
X163893320Y-75046285D01*
X162739605Y-76200000D01*
X162380395Y-76200000D01*
X162366253Y-76185858D01*
X162545858Y-76006253D01*
X162560000Y-76020395D01*
X163713715Y-74866680D01*
X163584467Y-74573877D01*
X162884194Y-74305612D01*
X162134565Y-74325750D01*
X161646524Y-74527903D01*
X161854681Y-74026605D01*
X161855318Y-73296597D01*
X161645231Y-72788147D01*
X162235806Y-73014388D01*
X162985435Y-72994250D01*
X163584467Y-72746123D01*
X163713715Y-72453320D01*
X162560000Y-71299605D01*
X162545858Y-71313748D01*
X162366253Y-71134143D01*
X162380395Y-71120000D01*
X162739605Y-71120000D01*
X163893320Y-72273715D01*
X164186123Y-72144467D01*
X164454388Y-71444194D01*
X164434250Y-70694565D01*
X164186123Y-70095533D01*
X163893320Y-69966285D01*
X162739605Y-71120000D01*
X162380395Y-71120000D01*
X161226680Y-69966285D01*
X160933877Y-70095533D01*
X160665612Y-70795806D01*
X160685750Y-71545435D01*
X160887903Y-72033476D01*
X160386605Y-71825319D01*
X159656597Y-71824682D01*
X159148147Y-72034769D01*
X159374388Y-71444194D01*
X159354250Y-70694565D01*
X159106123Y-70095533D01*
X158813320Y-69966285D01*
X157659605Y-71120000D01*
X157673748Y-71134143D01*
X157494143Y-71313748D01*
X157480000Y-71299605D01*
X156326285Y-72453320D01*
X153553715Y-72453320D01*
X152400000Y-71299605D01*
X152385858Y-71313748D01*
X152206253Y-71134143D01*
X152220395Y-71120000D01*
X152579605Y-71120000D01*
X153733320Y-72273715D01*
X154026123Y-72144467D01*
X154294388Y-71444194D01*
X154276970Y-70795806D01*
X155585612Y-70795806D01*
X155605750Y-71545435D01*
X155853877Y-72144467D01*
X156146680Y-72273715D01*
X157300395Y-71120000D01*
X156146680Y-69966285D01*
X155853877Y-70095533D01*
X155585612Y-70795806D01*
X154276970Y-70795806D01*
X154274250Y-70694565D01*
X154026123Y-70095533D01*
X153733320Y-69966285D01*
X152579605Y-71120000D01*
X152220395Y-71120000D01*
X151066680Y-69966285D01*
X150773877Y-70095533D01*
X150505612Y-70795806D01*
X150525750Y-71545435D01*
X150727903Y-72033476D01*
X150226605Y-71825319D01*
X149496597Y-71824682D01*
X148988147Y-72034769D01*
X149214388Y-71444194D01*
X149194250Y-70694565D01*
X148946123Y-70095533D01*
X148653320Y-69966285D01*
X147499605Y-71120000D01*
X147513748Y-71134143D01*
X147334143Y-71313748D01*
X147320000Y-71299605D01*
X146166285Y-72453320D01*
X146295533Y-72746123D01*
X146995806Y-73014388D01*
X147745435Y-72994250D01*
X148233476Y-72792097D01*
X148025319Y-73293395D01*
X148024682Y-74023403D01*
X148234769Y-74531853D01*
X147644194Y-74305612D01*
X146894565Y-74325750D01*
X146295533Y-74573877D01*
X146166285Y-74866680D01*
X147320000Y-76020395D01*
X147334143Y-76006253D01*
X147513748Y-76185858D01*
X147499605Y-76200000D01*
X147513748Y-76214143D01*
X147334143Y-76393748D01*
X147320000Y-76379605D01*
X146166285Y-77533320D01*
X146295533Y-77826123D01*
X146995806Y-78094388D01*
X147745435Y-78074250D01*
X148091033Y-77931099D01*
X147364566Y-78657566D01*
X147183561Y-78928459D01*
X147120000Y-79248000D01*
X147120000Y-81280000D01*
X147183561Y-81599541D01*
X147338886Y-81832001D01*
X147364566Y-81870434D01*
X149025000Y-83530868D01*
X149025000Y-97195000D01*
X145549018Y-97195000D01*
X145474090Y-97078559D01*
X145261890Y-96933569D01*
X145010000Y-96882560D01*
X142010000Y-96882560D01*
X141774683Y-96926838D01*
X141558559Y-97065910D01*
X141413569Y-97278110D01*
X141362560Y-97530000D01*
X141362560Y-98530000D01*
X141406838Y-98765317D01*
X141545910Y-98981441D01*
X141758110Y-99126431D01*
X142010000Y-99177440D01*
X145010000Y-99177440D01*
X145245317Y-99133162D01*
X145461441Y-98994090D01*
X145549644Y-98865000D01*
X149025000Y-98865000D01*
X149025000Y-103622312D01*
X148849849Y-103694683D01*
X148347108Y-104196547D01*
X148074691Y-104852600D01*
X148074244Y-105364376D01*
X147021434Y-104311566D01*
X146968863Y-104276439D01*
X146750541Y-104130561D01*
X146431000Y-104067000D01*
X145252868Y-104067000D01*
X144963308Y-103777440D01*
X145010000Y-103777440D01*
X145245317Y-103733162D01*
X145461441Y-103594090D01*
X145606431Y-103381890D01*
X145657440Y-103130000D01*
X145657440Y-102130000D01*
X145613162Y-101894683D01*
X145474090Y-101678559D01*
X145261890Y-101533569D01*
X145010000Y-101482560D01*
X142010000Y-101482560D01*
X141774683Y-101526838D01*
X141558559Y-101665910D01*
X141413569Y-101878110D01*
X141362560Y-102130000D01*
X141362560Y-103130000D01*
X141406838Y-103365317D01*
X141545910Y-103581441D01*
X141758110Y-103726431D01*
X142010000Y-103777440D01*
X142729192Y-103777440D01*
X142738561Y-103824541D01*
X142900567Y-104067000D01*
X142919566Y-104095434D01*
X144316566Y-105492434D01*
X144587459Y-105673439D01*
X144907000Y-105737000D01*
X146085132Y-105737000D01*
X146482672Y-106134540D01*
X146304000Y-106099000D01*
X140462000Y-106099000D01*
X140142459Y-106162561D01*
X140025914Y-106240434D01*
X139871566Y-106343566D01*
X138037440Y-108177692D01*
X138037440Y-107690000D01*
X137993162Y-107454683D01*
X137854090Y-107238559D01*
X137641890Y-107093569D01*
X137390000Y-107042560D01*
X136725000Y-107042560D01*
X136725000Y-106962153D01*
X136803260Y-106994649D01*
X137513623Y-106995269D01*
X138170151Y-106723997D01*
X138672892Y-106222133D01*
X138945309Y-105566080D01*
X138945929Y-104855717D01*
X138674657Y-104199189D01*
X138172793Y-103696448D01*
X137995000Y-103622622D01*
X137995000Y-86324868D01*
X139782434Y-84537434D01*
X139963439Y-84266541D01*
X140027000Y-83947000D01*
X140027000Y-78232000D01*
X139999627Y-78094388D01*
X139963440Y-77912460D01*
X139782434Y-77641566D01*
X139745238Y-77604370D01*
X139816286Y-77533322D01*
X139945533Y-77826123D01*
X140645806Y-78094388D01*
X141395435Y-78074250D01*
X141994467Y-77826123D01*
X142123715Y-77533320D01*
X140970000Y-76379605D01*
X140955858Y-76393748D01*
X140776253Y-76214143D01*
X140790395Y-76200000D01*
X141149605Y-76200000D01*
X142303320Y-77353715D01*
X142596123Y-77224467D01*
X142864388Y-76524194D01*
X142846970Y-75875806D01*
X145425612Y-75875806D01*
X145445750Y-76625435D01*
X145693877Y-77224467D01*
X145986680Y-77353715D01*
X147140395Y-76200000D01*
X145986680Y-75046285D01*
X145693877Y-75175533D01*
X145425612Y-75875806D01*
X142846970Y-75875806D01*
X142844250Y-75774565D01*
X142596123Y-75175533D01*
X142303320Y-75046285D01*
X141149605Y-76200000D01*
X140790395Y-76200000D01*
X140776253Y-76185858D01*
X140955858Y-76006253D01*
X140970000Y-76020395D01*
X142123715Y-74866680D01*
X141994467Y-74573877D01*
X141294194Y-74305612D01*
X140544565Y-74325750D01*
X140056524Y-74527903D01*
X140264681Y-74026605D01*
X140265318Y-73296597D01*
X140055231Y-72788147D01*
X140645806Y-73014388D01*
X141395435Y-72994250D01*
X141994467Y-72746123D01*
X142123715Y-72453320D01*
X140970000Y-71299605D01*
X140955858Y-71313748D01*
X140776253Y-71134143D01*
X140790395Y-71120000D01*
X141149605Y-71120000D01*
X142303320Y-72273715D01*
X142596123Y-72144467D01*
X142864388Y-71444194D01*
X142846970Y-70795806D01*
X145425612Y-70795806D01*
X145445750Y-71545435D01*
X145693877Y-72144467D01*
X145986680Y-72273715D01*
X147140395Y-71120000D01*
X145986680Y-69966285D01*
X145693877Y-70095533D01*
X145425612Y-70795806D01*
X142846970Y-70795806D01*
X142844250Y-70694565D01*
X142596123Y-70095533D01*
X142303320Y-69966285D01*
X141149605Y-71120000D01*
X140790395Y-71120000D01*
X139636680Y-69966285D01*
X139343877Y-70095533D01*
X139075612Y-70795806D01*
X139095750Y-71545435D01*
X139297903Y-72033476D01*
X138796605Y-71825319D01*
X138066597Y-71824682D01*
X137558147Y-72034769D01*
X137784388Y-71444194D01*
X137764250Y-70694565D01*
X137516123Y-70095533D01*
X137223320Y-69966285D01*
X136069605Y-71120000D01*
X136083748Y-71134143D01*
X135904143Y-71313748D01*
X135890000Y-71299605D01*
X134736285Y-72453320D01*
X134865533Y-72746123D01*
X135565806Y-73014388D01*
X136315435Y-72994250D01*
X136803476Y-72792097D01*
X136595319Y-73293395D01*
X136594682Y-74023403D01*
X136804769Y-74531853D01*
X136214194Y-74305612D01*
X135464565Y-74325750D01*
X134865533Y-74573877D01*
X134736285Y-74866680D01*
X135890000Y-76020395D01*
X135904143Y-76006253D01*
X136083748Y-76185858D01*
X136069605Y-76200000D01*
X137223320Y-77353715D01*
X137516123Y-77224467D01*
X137595000Y-77018568D01*
X137595000Y-77470000D01*
X137658561Y-77789541D01*
X137839566Y-78060434D01*
X138357000Y-78577868D01*
X138357000Y-79254673D01*
X138312163Y-79238103D01*
X137339605Y-80210660D01*
X138312163Y-81183217D01*
X138357000Y-81166647D01*
X138357000Y-83601132D01*
X136569566Y-85388566D01*
X136388561Y-85659459D01*
X136325000Y-85979000D01*
X136325000Y-103622312D01*
X136149849Y-103694683D01*
X135647108Y-104196547D01*
X135374691Y-104852600D01*
X135374071Y-105562963D01*
X135447587Y-105740885D01*
X135299566Y-105888906D01*
X135118561Y-106159799D01*
X135055000Y-106479340D01*
X135055000Y-107042560D01*
X134390000Y-107042560D01*
X134154683Y-107086838D01*
X133938559Y-107225910D01*
X133793569Y-107438110D01*
X133742560Y-107690000D01*
X133742560Y-108690000D01*
X133786838Y-108925317D01*
X133925910Y-109141441D01*
X134138110Y-109286431D01*
X134390000Y-109337440D01*
X136877692Y-109337440D01*
X135299566Y-110915566D01*
X135118561Y-111186459D01*
X135055000Y-111506000D01*
X135055000Y-111642560D01*
X134390000Y-111642560D01*
X134154683Y-111686838D01*
X133938559Y-111825910D01*
X133793569Y-112038110D01*
X133742560Y-112290000D01*
X133742560Y-113290000D01*
X133786838Y-113525317D01*
X133925910Y-113741441D01*
X134138110Y-113886431D01*
X134390000Y-113937440D01*
X137390000Y-113937440D01*
X137625317Y-113893162D01*
X137841441Y-113754090D01*
X137986431Y-113541890D01*
X138037440Y-113290000D01*
X138037440Y-112290000D01*
X137993162Y-112054683D01*
X137854090Y-111838559D01*
X137641890Y-111693569D01*
X137390000Y-111642560D01*
X136934308Y-111642560D01*
X140576560Y-108000308D01*
X140576560Y-109342000D01*
X140620838Y-109577317D01*
X140759910Y-109793441D01*
X140972110Y-109938431D01*
X141224000Y-109989440D01*
X141431742Y-109989440D01*
X141468561Y-110174541D01*
X141479849Y-110191434D01*
X141649566Y-110445434D01*
X144824566Y-113620434D01*
X145095459Y-113801439D01*
X145415000Y-113865000D01*
X157134132Y-113865000D01*
X157442132Y-114173000D01*
X132207000Y-114173000D01*
X132207000Y-81362823D01*
X136187443Y-81362823D01*
X136286042Y-81629625D01*
X136895582Y-81856061D01*
X137545377Y-81832001D01*
X138033958Y-81629625D01*
X138132557Y-81362823D01*
X137160000Y-80390265D01*
X136187443Y-81362823D01*
X132207000Y-81362823D01*
X132207000Y-79946242D01*
X135514599Y-79946242D01*
X135538659Y-80596037D01*
X135741035Y-81084618D01*
X136007837Y-81183217D01*
X136980395Y-80210660D01*
X136007837Y-79238103D01*
X135741035Y-79336702D01*
X135514599Y-79946242D01*
X132207000Y-79946242D01*
X132207000Y-79058497D01*
X136187443Y-79058497D01*
X137160000Y-80031055D01*
X138132557Y-79058497D01*
X138033958Y-78791695D01*
X137424418Y-78565259D01*
X136774623Y-78589319D01*
X136286042Y-78791695D01*
X136187443Y-79058497D01*
X132207000Y-79058497D01*
X132207000Y-77533320D01*
X134736285Y-77533320D01*
X134865533Y-77826123D01*
X135565806Y-78094388D01*
X136315435Y-78074250D01*
X136914467Y-77826123D01*
X137043715Y-77533320D01*
X135890000Y-76379605D01*
X134736285Y-77533320D01*
X132207000Y-77533320D01*
X132207000Y-75875806D01*
X133995612Y-75875806D01*
X134015750Y-76625435D01*
X134263877Y-77224467D01*
X134556680Y-77353715D01*
X135710395Y-76200000D01*
X134556680Y-75046285D01*
X134263877Y-75175533D01*
X133995612Y-75875806D01*
X132207000Y-75875806D01*
X132207000Y-70795806D01*
X133995612Y-70795806D01*
X134015750Y-71545435D01*
X134263877Y-72144467D01*
X134556680Y-72273715D01*
X135710395Y-71120000D01*
X134556680Y-69966285D01*
X134263877Y-70095533D01*
X133995612Y-70795806D01*
X132207000Y-70795806D01*
X132207000Y-69786680D01*
X134736285Y-69786680D01*
X135890000Y-70940395D01*
X137043715Y-69786680D01*
X139816285Y-69786680D01*
X140970000Y-70940395D01*
X142123715Y-69786680D01*
X146166285Y-69786680D01*
X147320000Y-70940395D01*
X148473715Y-69786680D01*
X151246285Y-69786680D01*
X152400000Y-70940395D01*
X153553715Y-69786680D01*
X156326285Y-69786680D01*
X157480000Y-70940395D01*
X158633715Y-69786680D01*
X161406285Y-69786680D01*
X162560000Y-70940395D01*
X163713715Y-69786680D01*
X163584467Y-69493877D01*
X162884194Y-69225612D01*
X162134565Y-69245750D01*
X161535533Y-69493877D01*
X161406285Y-69786680D01*
X158633715Y-69786680D01*
X158504467Y-69493877D01*
X157804194Y-69225612D01*
X157054565Y-69245750D01*
X156455533Y-69493877D01*
X156326285Y-69786680D01*
X153553715Y-69786680D01*
X153424467Y-69493877D01*
X152724194Y-69225612D01*
X151974565Y-69245750D01*
X151375533Y-69493877D01*
X151246285Y-69786680D01*
X148473715Y-69786680D01*
X148344467Y-69493877D01*
X147644194Y-69225612D01*
X146894565Y-69245750D01*
X146295533Y-69493877D01*
X146166285Y-69786680D01*
X142123715Y-69786680D01*
X141994467Y-69493877D01*
X141294194Y-69225612D01*
X140544565Y-69245750D01*
X139945533Y-69493877D01*
X139816285Y-69786680D01*
X137043715Y-69786680D01*
X136914467Y-69493877D01*
X136214194Y-69225612D01*
X135464565Y-69245750D01*
X134865533Y-69493877D01*
X134736285Y-69786680D01*
X132207000Y-69786680D01*
X132207000Y-68707000D01*
X164973000Y-68707000D01*
X164973000Y-125020000D01*
X164973000Y-125020000D01*
G37*
X164973000Y-125020000D02*
X159512000Y-125020000D01*
X159512000Y-124772298D01*
X160020000Y-124873345D01*
X160593489Y-124759271D01*
X161079670Y-124434415D01*
X161094500Y-124412220D01*
X161158073Y-124565698D01*
X161336701Y-124744327D01*
X161570090Y-124841000D01*
X162274250Y-124841000D01*
X162433000Y-124682250D01*
X162433000Y-123317000D01*
X162687000Y-123317000D01*
X162687000Y-124682250D01*
X162845750Y-124841000D01*
X163549910Y-124841000D01*
X163783299Y-124744327D01*
X163961927Y-124565698D01*
X164058600Y-124332309D01*
X164058600Y-123475750D01*
X163899850Y-123317000D01*
X162687000Y-123317000D01*
X162433000Y-123317000D01*
X162413000Y-123317000D01*
X162413000Y-123063000D01*
X162433000Y-123063000D01*
X162433000Y-121697750D01*
X162687000Y-121697750D01*
X162687000Y-123063000D01*
X163899850Y-123063000D01*
X164058600Y-122904250D01*
X164058600Y-122047691D01*
X163961927Y-121814302D01*
X163783299Y-121635673D01*
X163549910Y-121539000D01*
X162845750Y-121539000D01*
X162687000Y-121697750D01*
X162433000Y-121697750D01*
X162274250Y-121539000D01*
X161570090Y-121539000D01*
X161336701Y-121635673D01*
X161158073Y-121814302D01*
X161094500Y-121967780D01*
X161079670Y-121945585D01*
X160593489Y-121620729D01*
X160220000Y-121546437D01*
X160220000Y-114935000D01*
X160156439Y-114615459D01*
X159975434Y-114344566D01*
X158070434Y-112439566D01*
X157922920Y-112341000D01*
X160412560Y-112341000D01*
X160412560Y-113290000D01*
X160456838Y-113525317D01*
X160595910Y-113741441D01*
X160808110Y-113886431D01*
X161060000Y-113937440D01*
X164060000Y-113937440D01*
X164295317Y-113893162D01*
X164511441Y-113754090D01*
X164656431Y-113541890D01*
X164707440Y-113290000D01*
X164707440Y-112290000D01*
X164663162Y-112054683D01*
X164524090Y-111838559D01*
X164311890Y-111693569D01*
X164060000Y-111642560D01*
X162593428Y-111642560D01*
X161866434Y-110915566D01*
X161595541Y-110734561D01*
X161276000Y-110671000D01*
X154015868Y-110671000D01*
X153334308Y-109989440D01*
X153416000Y-109989440D01*
X153651317Y-109945162D01*
X153678539Y-109927645D01*
X153797691Y-109977000D01*
X154019250Y-109977000D01*
X154178000Y-109818250D01*
X154178000Y-108707000D01*
X154432000Y-108707000D01*
X154432000Y-109818250D01*
X154590750Y-109977000D01*
X154812309Y-109977000D01*
X154940000Y-109924109D01*
X155067691Y-109977000D01*
X155289250Y-109977000D01*
X155448000Y-109818250D01*
X155448000Y-108707000D01*
X155702000Y-108707000D01*
X155702000Y-109818250D01*
X155860750Y-109977000D01*
X156082309Y-109977000D01*
X156315698Y-109880327D01*
X156494327Y-109701699D01*
X156591000Y-109468310D01*
X156591000Y-108865750D01*
X156432250Y-108707000D01*
X155702000Y-108707000D01*
X155448000Y-108707000D01*
X154432000Y-108707000D01*
X154178000Y-108707000D01*
X154158000Y-108707000D01*
X154158000Y-108453000D01*
X154178000Y-108453000D01*
X154178000Y-107341750D01*
X154432000Y-107341750D01*
X154432000Y-108453000D01*
X155448000Y-108453000D01*
X155448000Y-107341750D01*
X155702000Y-107341750D01*
X155702000Y-108453000D01*
X156432250Y-108453000D01*
X156591000Y-108294250D01*
X156591000Y-107691690D01*
X156494327Y-107458301D01*
X156315698Y-107279673D01*
X156082309Y-107183000D01*
X155860750Y-107183000D01*
X155702000Y-107341750D01*
X155448000Y-107341750D01*
X155289250Y-107183000D01*
X155067691Y-107183000D01*
X154940000Y-107235891D01*
X154812309Y-107183000D01*
X154590750Y-107183000D01*
X154432000Y-107341750D01*
X154178000Y-107341750D01*
X154019250Y-107183000D01*
X153797691Y-107183000D01*
X153681737Y-107231030D01*
X153667890Y-107221569D01*
X153416000Y-107170560D01*
X152654000Y-107170560D01*
X152418683Y-107214838D01*
X152402901Y-107224993D01*
X152397890Y-107221569D01*
X152146000Y-107170560D01*
X151384000Y-107170560D01*
X151148683Y-107214838D01*
X151132901Y-107224993D01*
X151127890Y-107221569D01*
X150876000Y-107170560D01*
X150114000Y-107170560D01*
X149887357Y-107213206D01*
X149815434Y-107105566D01*
X149704693Y-106994825D01*
X150213623Y-106995269D01*
X150870151Y-106723997D01*
X151372892Y-106222133D01*
X151645309Y-105566080D01*
X151645929Y-104855717D01*
X151374657Y-104199189D01*
X150872793Y-103696448D01*
X150695000Y-103622622D01*
X150695000Y-83185000D01*
X150631439Y-82865459D01*
X150450434Y-82594566D01*
X149707775Y-81851907D01*
X150245377Y-81832001D01*
X150733958Y-81629625D01*
X150832557Y-81362823D01*
X149860000Y-80390265D01*
X149845858Y-80404408D01*
X149666252Y-80224802D01*
X149680395Y-80210660D01*
X150039605Y-80210660D01*
X151012163Y-81183217D01*
X151278965Y-81084618D01*
X151505401Y-80475078D01*
X151481341Y-79825283D01*
X151278965Y-79336702D01*
X151012163Y-79238103D01*
X150039605Y-80210660D01*
X149680395Y-80210660D01*
X149666252Y-80196518D01*
X149845858Y-80016912D01*
X149860000Y-80031055D01*
X150832557Y-79058497D01*
X150733958Y-78791695D01*
X150124418Y-78565259D01*
X149806850Y-78577018D01*
X150450434Y-77933434D01*
X150584066Y-77733439D01*
X150631439Y-77662541D01*
X150657142Y-77533320D01*
X151246285Y-77533320D01*
X151375533Y-77826123D01*
X152075806Y-78094388D01*
X152825435Y-78074250D01*
X153424467Y-77826123D01*
X153553715Y-77533320D01*
X152400000Y-76379605D01*
X151246285Y-77533320D01*
X150657142Y-77533320D01*
X150695000Y-77343000D01*
X150695000Y-77034041D01*
X150773877Y-77224467D01*
X151066680Y-77353715D01*
X152220395Y-76200000D01*
X152579605Y-76200000D01*
X153733320Y-77353715D01*
X154026123Y-77224467D01*
X154294388Y-76524194D01*
X154276970Y-75875806D01*
X155585612Y-75875806D01*
X155605750Y-76625435D01*
X155853877Y-77224467D01*
X156146680Y-77353715D01*
X157300395Y-76200000D01*
X156146680Y-75046285D01*
X155853877Y-75175533D01*
X155585612Y-75875806D01*
X154276970Y-75875806D01*
X154274250Y-75774565D01*
X154026123Y-75175533D01*
X153733320Y-75046285D01*
X152579605Y-76200000D01*
X152220395Y-76200000D01*
X152206253Y-76185858D01*
X152385858Y-76006253D01*
X152400000Y-76020395D01*
X153553715Y-74866680D01*
X153424467Y-74573877D01*
X152724194Y-74305612D01*
X151974565Y-74325750D01*
X151486524Y-74527903D01*
X151694681Y-74026605D01*
X151695318Y-73296597D01*
X151485231Y-72788147D01*
X152075806Y-73014388D01*
X152825435Y-72994250D01*
X153424467Y-72746123D01*
X153553715Y-72453320D01*
X156326285Y-72453320D01*
X156455533Y-72746123D01*
X157155806Y-73014388D01*
X157905435Y-72994250D01*
X158393476Y-72792097D01*
X158185319Y-73293395D01*
X158184682Y-74023403D01*
X158394769Y-74531853D01*
X157804194Y-74305612D01*
X157054565Y-74325750D01*
X156455533Y-74573877D01*
X156326285Y-74866680D01*
X157480000Y-76020395D01*
X157494143Y-76006253D01*
X157673748Y-76185858D01*
X157659605Y-76200000D01*
X157673748Y-76214143D01*
X157494143Y-76393748D01*
X157480000Y-76379605D01*
X156326285Y-77533320D01*
X156455533Y-77826123D01*
X157155806Y-78094388D01*
X157721953Y-78079179D01*
X157016566Y-78784566D01*
X156835561Y-79055459D01*
X156772000Y-79375000D01*
X156772000Y-84582000D01*
X156835561Y-84901541D01*
X156997567Y-85144000D01*
X157016566Y-85172434D01*
X159185000Y-87340868D01*
X159185000Y-103622312D01*
X159009849Y-103694683D01*
X158507108Y-104196547D01*
X158234691Y-104852600D01*
X158234071Y-105562963D01*
X158505343Y-106219491D01*
X159007207Y-106722232D01*
X159663260Y-106994649D01*
X160184236Y-106995104D01*
X160530007Y-107340875D01*
X160463569Y-107438110D01*
X160412560Y-107690000D01*
X160412560Y-108690000D01*
X160456838Y-108925317D01*
X160595910Y-109141441D01*
X160808110Y-109286431D01*
X161060000Y-109337440D01*
X164060000Y-109337440D01*
X164295317Y-109293162D01*
X164511441Y-109154090D01*
X164656431Y-108941890D01*
X164707440Y-108690000D01*
X164707440Y-107690000D01*
X164663162Y-107454683D01*
X164524090Y-107238559D01*
X164311890Y-107093569D01*
X164060000Y-107042560D01*
X162593428Y-107042560D01*
X161603341Y-106052473D01*
X161805309Y-105566080D01*
X161805929Y-104855717D01*
X161534657Y-104199189D01*
X161032793Y-103696448D01*
X160855000Y-103622622D01*
X160855000Y-86995000D01*
X160791439Y-86675459D01*
X160610434Y-86404566D01*
X158442000Y-84236132D01*
X158442000Y-81362823D01*
X159047443Y-81362823D01*
X159146042Y-81629625D01*
X159755582Y-81856061D01*
X160405377Y-81832001D01*
X160893958Y-81629625D01*
X160992557Y-81362823D01*
X160020000Y-80390265D01*
X159047443Y-81362823D01*
X158442000Y-81362823D01*
X158442000Y-80700672D01*
X158601035Y-81084618D01*
X158867837Y-81183217D01*
X159840395Y-80210660D01*
X160199605Y-80210660D01*
X161172163Y-81183217D01*
X161438965Y-81084618D01*
X161665401Y-80475078D01*
X161641341Y-79825283D01*
X161438965Y-79336702D01*
X161172163Y-79238103D01*
X160199605Y-80210660D01*
X159840395Y-80210660D01*
X159826252Y-80196518D01*
X160005858Y-80016912D01*
X160020000Y-80031055D01*
X160992557Y-79058497D01*
X160893958Y-78791695D01*
X160284418Y-78565259D01*
X159634623Y-78589319D01*
X159530363Y-78632505D01*
X160610434Y-77552434D01*
X160623206Y-77533320D01*
X161406285Y-77533320D01*
X161535533Y-77826123D01*
X162235806Y-78094388D01*
X162985435Y-78074250D01*
X163584467Y-77826123D01*
X163713715Y-77533320D01*
X162560000Y-76379605D01*
X161406285Y-77533320D01*
X160623206Y-77533320D01*
X160791439Y-77281541D01*
X160845319Y-77010669D01*
X160933877Y-77224467D01*
X161226680Y-77353715D01*
X162380395Y-76200000D01*
X162739605Y-76200000D01*
X163893320Y-77353715D01*
X164186123Y-77224467D01*
X164454388Y-76524194D01*
X164434250Y-75774565D01*
X164186123Y-75175533D01*
X163893320Y-75046285D01*
X162739605Y-76200000D01*
X162380395Y-76200000D01*
X162366253Y-76185858D01*
X162545858Y-76006253D01*
X162560000Y-76020395D01*
X163713715Y-74866680D01*
X163584467Y-74573877D01*
X162884194Y-74305612D01*
X162134565Y-74325750D01*
X161646524Y-74527903D01*
X161854681Y-74026605D01*
X161855318Y-73296597D01*
X161645231Y-72788147D01*
X162235806Y-73014388D01*
X162985435Y-72994250D01*
X163584467Y-72746123D01*
X163713715Y-72453320D01*
X162560000Y-71299605D01*
X162545858Y-71313748D01*
X162366253Y-71134143D01*
X162380395Y-71120000D01*
X162739605Y-71120000D01*
X163893320Y-72273715D01*
X164186123Y-72144467D01*
X164454388Y-71444194D01*
X164434250Y-70694565D01*
X164186123Y-70095533D01*
X163893320Y-69966285D01*
X162739605Y-71120000D01*
X162380395Y-71120000D01*
X161226680Y-69966285D01*
X160933877Y-70095533D01*
X160665612Y-70795806D01*
X160685750Y-71545435D01*
X160887903Y-72033476D01*
X160386605Y-71825319D01*
X159656597Y-71824682D01*
X159148147Y-72034769D01*
X159374388Y-71444194D01*
X159354250Y-70694565D01*
X159106123Y-70095533D01*
X158813320Y-69966285D01*
X157659605Y-71120000D01*
X157673748Y-71134143D01*
X157494143Y-71313748D01*
X157480000Y-71299605D01*
X156326285Y-72453320D01*
X153553715Y-72453320D01*
X152400000Y-71299605D01*
X152385858Y-71313748D01*
X152206253Y-71134143D01*
X152220395Y-71120000D01*
X152579605Y-71120000D01*
X153733320Y-72273715D01*
X154026123Y-72144467D01*
X154294388Y-71444194D01*
X154276970Y-70795806D01*
X155585612Y-70795806D01*
X155605750Y-71545435D01*
X155853877Y-72144467D01*
X156146680Y-72273715D01*
X157300395Y-71120000D01*
X156146680Y-69966285D01*
X155853877Y-70095533D01*
X155585612Y-70795806D01*
X154276970Y-70795806D01*
X154274250Y-70694565D01*
X154026123Y-70095533D01*
X153733320Y-69966285D01*
X152579605Y-71120000D01*
X152220395Y-71120000D01*
X151066680Y-69966285D01*
X150773877Y-70095533D01*
X150505612Y-70795806D01*
X150525750Y-71545435D01*
X150727903Y-72033476D01*
X150226605Y-71825319D01*
X149496597Y-71824682D01*
X148988147Y-72034769D01*
X149214388Y-71444194D01*
X149194250Y-70694565D01*
X148946123Y-70095533D01*
X148653320Y-69966285D01*
X147499605Y-71120000D01*
X147513748Y-71134143D01*
X147334143Y-71313748D01*
X147320000Y-71299605D01*
X146166285Y-72453320D01*
X146295533Y-72746123D01*
X146995806Y-73014388D01*
X147745435Y-72994250D01*
X148233476Y-72792097D01*
X148025319Y-73293395D01*
X148024682Y-74023403D01*
X148234769Y-74531853D01*
X147644194Y-74305612D01*
X146894565Y-74325750D01*
X146295533Y-74573877D01*
X146166285Y-74866680D01*
X147320000Y-76020395D01*
X147334143Y-76006253D01*
X147513748Y-76185858D01*
X147499605Y-76200000D01*
X147513748Y-76214143D01*
X147334143Y-76393748D01*
X147320000Y-76379605D01*
X146166285Y-77533320D01*
X146295533Y-77826123D01*
X146995806Y-78094388D01*
X147745435Y-78074250D01*
X148091033Y-77931099D01*
X147364566Y-78657566D01*
X147183561Y-78928459D01*
X147120000Y-79248000D01*
X147120000Y-81280000D01*
X147183561Y-81599541D01*
X147338886Y-81832001D01*
X147364566Y-81870434D01*
X149025000Y-83530868D01*
X149025000Y-97195000D01*
X145549018Y-97195000D01*
X145474090Y-97078559D01*
X145261890Y-96933569D01*
X145010000Y-96882560D01*
X142010000Y-96882560D01*
X141774683Y-96926838D01*
X141558559Y-97065910D01*
X141413569Y-97278110D01*
X141362560Y-97530000D01*
X141362560Y-98530000D01*
X141406838Y-98765317D01*
X141545910Y-98981441D01*
X141758110Y-99126431D01*
X142010000Y-99177440D01*
X145010000Y-99177440D01*
X145245317Y-99133162D01*
X145461441Y-98994090D01*
X145549644Y-98865000D01*
X149025000Y-98865000D01*
X149025000Y-103622312D01*
X148849849Y-103694683D01*
X148347108Y-104196547D01*
X148074691Y-104852600D01*
X148074244Y-105364376D01*
X147021434Y-104311566D01*
X146968863Y-104276439D01*
X146750541Y-104130561D01*
X146431000Y-104067000D01*
X145252868Y-104067000D01*
X144963308Y-103777440D01*
X145010000Y-103777440D01*
X145245317Y-103733162D01*
X145461441Y-103594090D01*
X145606431Y-103381890D01*
X145657440Y-103130000D01*
X145657440Y-102130000D01*
X145613162Y-101894683D01*
X145474090Y-101678559D01*
X145261890Y-101533569D01*
X145010000Y-101482560D01*
X142010000Y-101482560D01*
X141774683Y-101526838D01*
X141558559Y-101665910D01*
X141413569Y-101878110D01*
X141362560Y-102130000D01*
X141362560Y-103130000D01*
X141406838Y-103365317D01*
X141545910Y-103581441D01*
X141758110Y-103726431D01*
X142010000Y-103777440D01*
X142729192Y-103777440D01*
X142738561Y-103824541D01*
X142900567Y-104067000D01*
X142919566Y-104095434D01*
X144316566Y-105492434D01*
X144587459Y-105673439D01*
X144907000Y-105737000D01*
X146085132Y-105737000D01*
X146482672Y-106134540D01*
X146304000Y-106099000D01*
X140462000Y-106099000D01*
X140142459Y-106162561D01*
X140025914Y-106240434D01*
X139871566Y-106343566D01*
X138037440Y-108177692D01*
X138037440Y-107690000D01*
X137993162Y-107454683D01*
X137854090Y-107238559D01*
X137641890Y-107093569D01*
X137390000Y-107042560D01*
X136725000Y-107042560D01*
X136725000Y-106962153D01*
X136803260Y-106994649D01*
X137513623Y-106995269D01*
X138170151Y-106723997D01*
X138672892Y-106222133D01*
X138945309Y-105566080D01*
X138945929Y-104855717D01*
X138674657Y-104199189D01*
X138172793Y-103696448D01*
X137995000Y-103622622D01*
X137995000Y-86324868D01*
X139782434Y-84537434D01*
X139963439Y-84266541D01*
X140027000Y-83947000D01*
X140027000Y-78232000D01*
X139999627Y-78094388D01*
X139963440Y-77912460D01*
X139782434Y-77641566D01*
X139745238Y-77604370D01*
X139816286Y-77533322D01*
X139945533Y-77826123D01*
X140645806Y-78094388D01*
X141395435Y-78074250D01*
X141994467Y-77826123D01*
X142123715Y-77533320D01*
X140970000Y-76379605D01*
X140955858Y-76393748D01*
X140776253Y-76214143D01*
X140790395Y-76200000D01*
X141149605Y-76200000D01*
X142303320Y-77353715D01*
X142596123Y-77224467D01*
X142864388Y-76524194D01*
X142846970Y-75875806D01*
X145425612Y-75875806D01*
X145445750Y-76625435D01*
X145693877Y-77224467D01*
X145986680Y-77353715D01*
X147140395Y-76200000D01*
X145986680Y-75046285D01*
X145693877Y-75175533D01*
X145425612Y-75875806D01*
X142846970Y-75875806D01*
X142844250Y-75774565D01*
X142596123Y-75175533D01*
X142303320Y-75046285D01*
X141149605Y-76200000D01*
X140790395Y-76200000D01*
X140776253Y-76185858D01*
X140955858Y-76006253D01*
X140970000Y-76020395D01*
X142123715Y-74866680D01*
X141994467Y-74573877D01*
X141294194Y-74305612D01*
X140544565Y-74325750D01*
X140056524Y-74527903D01*
X140264681Y-74026605D01*
X140265318Y-73296597D01*
X140055231Y-72788147D01*
X140645806Y-73014388D01*
X141395435Y-72994250D01*
X141994467Y-72746123D01*
X142123715Y-72453320D01*
X140970000Y-71299605D01*
X140955858Y-71313748D01*
X140776253Y-71134143D01*
X140790395Y-71120000D01*
X141149605Y-71120000D01*
X142303320Y-72273715D01*
X142596123Y-72144467D01*
X142864388Y-71444194D01*
X142846970Y-70795806D01*
X145425612Y-70795806D01*
X145445750Y-71545435D01*
X145693877Y-72144467D01*
X145986680Y-72273715D01*
X147140395Y-71120000D01*
X145986680Y-69966285D01*
X145693877Y-70095533D01*
X145425612Y-70795806D01*
X142846970Y-70795806D01*
X142844250Y-70694565D01*
X142596123Y-70095533D01*
X142303320Y-69966285D01*
X141149605Y-71120000D01*
X140790395Y-71120000D01*
X139636680Y-69966285D01*
X139343877Y-70095533D01*
X139075612Y-70795806D01*
X139095750Y-71545435D01*
X139297903Y-72033476D01*
X138796605Y-71825319D01*
X138066597Y-71824682D01*
X137558147Y-72034769D01*
X137784388Y-71444194D01*
X137764250Y-70694565D01*
X137516123Y-70095533D01*
X137223320Y-69966285D01*
X136069605Y-71120000D01*
X136083748Y-71134143D01*
X135904143Y-71313748D01*
X135890000Y-71299605D01*
X134736285Y-72453320D01*
X134865533Y-72746123D01*
X135565806Y-73014388D01*
X136315435Y-72994250D01*
X136803476Y-72792097D01*
X136595319Y-73293395D01*
X136594682Y-74023403D01*
X136804769Y-74531853D01*
X136214194Y-74305612D01*
X135464565Y-74325750D01*
X134865533Y-74573877D01*
X134736285Y-74866680D01*
X135890000Y-76020395D01*
X135904143Y-76006253D01*
X136083748Y-76185858D01*
X136069605Y-76200000D01*
X137223320Y-77353715D01*
X137516123Y-77224467D01*
X137595000Y-77018568D01*
X137595000Y-77470000D01*
X137658561Y-77789541D01*
X137839566Y-78060434D01*
X138357000Y-78577868D01*
X138357000Y-79254673D01*
X138312163Y-79238103D01*
X137339605Y-80210660D01*
X138312163Y-81183217D01*
X138357000Y-81166647D01*
X138357000Y-83601132D01*
X136569566Y-85388566D01*
X136388561Y-85659459D01*
X136325000Y-85979000D01*
X136325000Y-103622312D01*
X136149849Y-103694683D01*
X135647108Y-104196547D01*
X135374691Y-104852600D01*
X135374071Y-105562963D01*
X135447587Y-105740885D01*
X135299566Y-105888906D01*
X135118561Y-106159799D01*
X135055000Y-106479340D01*
X135055000Y-107042560D01*
X134390000Y-107042560D01*
X134154683Y-107086838D01*
X133938559Y-107225910D01*
X133793569Y-107438110D01*
X133742560Y-107690000D01*
X133742560Y-108690000D01*
X133786838Y-108925317D01*
X133925910Y-109141441D01*
X134138110Y-109286431D01*
X134390000Y-109337440D01*
X136877692Y-109337440D01*
X135299566Y-110915566D01*
X135118561Y-111186459D01*
X135055000Y-111506000D01*
X135055000Y-111642560D01*
X134390000Y-111642560D01*
X134154683Y-111686838D01*
X133938559Y-111825910D01*
X133793569Y-112038110D01*
X133742560Y-112290000D01*
X133742560Y-113290000D01*
X133786838Y-113525317D01*
X133925910Y-113741441D01*
X134138110Y-113886431D01*
X134390000Y-113937440D01*
X137390000Y-113937440D01*
X137625317Y-113893162D01*
X137841441Y-113754090D01*
X137986431Y-113541890D01*
X138037440Y-113290000D01*
X138037440Y-112290000D01*
X137993162Y-112054683D01*
X137854090Y-111838559D01*
X137641890Y-111693569D01*
X137390000Y-111642560D01*
X136934308Y-111642560D01*
X140576560Y-108000308D01*
X140576560Y-109342000D01*
X140620838Y-109577317D01*
X140759910Y-109793441D01*
X140972110Y-109938431D01*
X141224000Y-109989440D01*
X141431742Y-109989440D01*
X141468561Y-110174541D01*
X141479849Y-110191434D01*
X141649566Y-110445434D01*
X144824566Y-113620434D01*
X145095459Y-113801439D01*
X145415000Y-113865000D01*
X157134132Y-113865000D01*
X157442132Y-114173000D01*
X132207000Y-114173000D01*
X132207000Y-81362823D01*
X136187443Y-81362823D01*
X136286042Y-81629625D01*
X136895582Y-81856061D01*
X137545377Y-81832001D01*
X138033958Y-81629625D01*
X138132557Y-81362823D01*
X137160000Y-80390265D01*
X136187443Y-81362823D01*
X132207000Y-81362823D01*
X132207000Y-79946242D01*
X135514599Y-79946242D01*
X135538659Y-80596037D01*
X135741035Y-81084618D01*
X136007837Y-81183217D01*
X136980395Y-80210660D01*
X136007837Y-79238103D01*
X135741035Y-79336702D01*
X135514599Y-79946242D01*
X132207000Y-79946242D01*
X132207000Y-79058497D01*
X136187443Y-79058497D01*
X137160000Y-80031055D01*
X138132557Y-79058497D01*
X138033958Y-78791695D01*
X137424418Y-78565259D01*
X136774623Y-78589319D01*
X136286042Y-78791695D01*
X136187443Y-79058497D01*
X132207000Y-79058497D01*
X132207000Y-77533320D01*
X134736285Y-77533320D01*
X134865533Y-77826123D01*
X135565806Y-78094388D01*
X136315435Y-78074250D01*
X136914467Y-77826123D01*
X137043715Y-77533320D01*
X135890000Y-76379605D01*
X134736285Y-77533320D01*
X132207000Y-77533320D01*
X132207000Y-75875806D01*
X133995612Y-75875806D01*
X134015750Y-76625435D01*
X134263877Y-77224467D01*
X134556680Y-77353715D01*
X135710395Y-76200000D01*
X134556680Y-75046285D01*
X134263877Y-75175533D01*
X133995612Y-75875806D01*
X132207000Y-75875806D01*
X132207000Y-70795806D01*
X133995612Y-70795806D01*
X134015750Y-71545435D01*
X134263877Y-72144467D01*
X134556680Y-72273715D01*
X135710395Y-71120000D01*
X134556680Y-69966285D01*
X134263877Y-70095533D01*
X133995612Y-70795806D01*
X132207000Y-70795806D01*
X132207000Y-69786680D01*
X134736285Y-69786680D01*
X135890000Y-70940395D01*
X137043715Y-69786680D01*
X139816285Y-69786680D01*
X140970000Y-70940395D01*
X142123715Y-69786680D01*
X146166285Y-69786680D01*
X147320000Y-70940395D01*
X148473715Y-69786680D01*
X151246285Y-69786680D01*
X152400000Y-70940395D01*
X153553715Y-69786680D01*
X156326285Y-69786680D01*
X157480000Y-70940395D01*
X158633715Y-69786680D01*
X161406285Y-69786680D01*
X162560000Y-70940395D01*
X163713715Y-69786680D01*
X163584467Y-69493877D01*
X162884194Y-69225612D01*
X162134565Y-69245750D01*
X161535533Y-69493877D01*
X161406285Y-69786680D01*
X158633715Y-69786680D01*
X158504467Y-69493877D01*
X157804194Y-69225612D01*
X157054565Y-69245750D01*
X156455533Y-69493877D01*
X156326285Y-69786680D01*
X153553715Y-69786680D01*
X153424467Y-69493877D01*
X152724194Y-69225612D01*
X151974565Y-69245750D01*
X151375533Y-69493877D01*
X151246285Y-69786680D01*
X148473715Y-69786680D01*
X148344467Y-69493877D01*
X147644194Y-69225612D01*
X146894565Y-69245750D01*
X146295533Y-69493877D01*
X146166285Y-69786680D01*
X142123715Y-69786680D01*
X141994467Y-69493877D01*
X141294194Y-69225612D01*
X140544565Y-69245750D01*
X139945533Y-69493877D01*
X139816285Y-69786680D01*
X137043715Y-69786680D01*
X136914467Y-69493877D01*
X136214194Y-69225612D01*
X135464565Y-69245750D01*
X134865533Y-69493877D01*
X134736285Y-69786680D01*
X132207000Y-69786680D01*
X132207000Y-68707000D01*
X164973000Y-68707000D01*
X164973000Y-125020000D01*
G36*
X158550000Y-115280868D02*
X158550000Y-121920000D01*
X158577446Y-122057979D01*
X158382036Y-121839268D01*
X157854791Y-121585291D01*
X157839026Y-121582642D01*
X157607000Y-121703783D01*
X157607000Y-123063000D01*
X157627000Y-123063000D01*
X157627000Y-123317000D01*
X157607000Y-123317000D01*
X157607000Y-124676217D01*
X157839026Y-124797358D01*
X157854791Y-124794709D01*
X158382036Y-124540732D01*
X158623000Y-124271035D01*
X158623000Y-125020000D01*
X132207000Y-125020000D01*
X132207000Y-123005255D01*
X133121400Y-123005255D01*
X133121400Y-123374745D01*
X133235474Y-123948234D01*
X133560330Y-124434415D01*
X134046511Y-124759271D01*
X134620000Y-124873345D01*
X135193489Y-124759271D01*
X135679670Y-124434415D01*
X135890000Y-124119634D01*
X136100330Y-124434415D01*
X136586511Y-124759271D01*
X137160000Y-124873345D01*
X137733489Y-124759271D01*
X138219670Y-124434415D01*
X138430000Y-124119634D01*
X138640330Y-124434415D01*
X139126511Y-124759271D01*
X139700000Y-124873345D01*
X140273489Y-124759271D01*
X140759670Y-124434415D01*
X140970000Y-124119634D01*
X141180330Y-124434415D01*
X141666511Y-124759271D01*
X142240000Y-124873345D01*
X142813489Y-124759271D01*
X143299670Y-124434415D01*
X143510000Y-124119634D01*
X143720330Y-124434415D01*
X144206511Y-124759271D01*
X144780000Y-124873345D01*
X145353489Y-124759271D01*
X145839670Y-124434415D01*
X146050000Y-124119634D01*
X146260330Y-124434415D01*
X146746511Y-124759271D01*
X147320000Y-124873345D01*
X147893489Y-124759271D01*
X148379670Y-124434415D01*
X148590000Y-124119634D01*
X148800330Y-124434415D01*
X149286511Y-124759271D01*
X149860000Y-124873345D01*
X150433489Y-124759271D01*
X150919670Y-124434415D01*
X151130000Y-124119634D01*
X151340330Y-124434415D01*
X151826511Y-124759271D01*
X152400000Y-124873345D01*
X152973489Y-124759271D01*
X153459670Y-124434415D01*
X153670000Y-124119634D01*
X153880330Y-124434415D01*
X154366511Y-124759271D01*
X154940000Y-124873345D01*
X155513489Y-124759271D01*
X155999670Y-124434415D01*
X156206461Y-124124931D01*
X156577964Y-124540732D01*
X157105209Y-124794709D01*
X157120974Y-124797358D01*
X157353000Y-124676217D01*
X157353000Y-123317000D01*
X157333000Y-123317000D01*
X157333000Y-123063000D01*
X157353000Y-123063000D01*
X157353000Y-121703783D01*
X157120974Y-121582642D01*
X157105209Y-121585291D01*
X156577964Y-121839268D01*
X156206461Y-122255069D01*
X155999670Y-121945585D01*
X155775000Y-121795465D01*
X155775000Y-121031000D01*
X155711439Y-120711459D01*
X155530434Y-120440566D01*
X153966868Y-118877000D01*
X154019250Y-118877000D01*
X154178000Y-118718250D01*
X154178000Y-117607000D01*
X154158000Y-117607000D01*
X154158000Y-117353000D01*
X154178000Y-117353000D01*
X154178000Y-116241750D01*
X154432000Y-116241750D01*
X154432000Y-117353000D01*
X154452000Y-117353000D01*
X154452000Y-117607000D01*
X154432000Y-117607000D01*
X154432000Y-118718250D01*
X154590750Y-118877000D01*
X154812309Y-118877000D01*
X155007331Y-118796219D01*
X155069110Y-118838431D01*
X155321000Y-118889440D01*
X156083000Y-118889440D01*
X156318317Y-118845162D01*
X156534441Y-118706090D01*
X156679431Y-118493890D01*
X156730440Y-118242000D01*
X156730440Y-116718000D01*
X156686162Y-116482683D01*
X156547090Y-116266559D01*
X156334890Y-116121569D01*
X156083000Y-116070560D01*
X155321000Y-116070560D01*
X155085683Y-116114838D01*
X155008726Y-116164359D01*
X154812309Y-116083000D01*
X154590750Y-116083000D01*
X154432000Y-116241750D01*
X154178000Y-116241750D01*
X154019250Y-116083000D01*
X153797691Y-116083000D01*
X153681737Y-116131030D01*
X153667890Y-116121569D01*
X153416000Y-116070560D01*
X152654000Y-116070560D01*
X152418683Y-116114838D01*
X152402901Y-116124993D01*
X152397890Y-116121569D01*
X152146000Y-116070560D01*
X151384000Y-116070560D01*
X151148683Y-116114838D01*
X151132901Y-116124993D01*
X151127890Y-116121569D01*
X150876000Y-116070560D01*
X150114000Y-116070560D01*
X149878683Y-116114838D01*
X149862901Y-116124993D01*
X149857890Y-116121569D01*
X149606000Y-116070560D01*
X148844000Y-116070560D01*
X148608683Y-116114838D01*
X148592901Y-116124993D01*
X148587890Y-116121569D01*
X148336000Y-116070560D01*
X147574000Y-116070560D01*
X147338683Y-116114838D01*
X147322901Y-116124993D01*
X147317890Y-116121569D01*
X147066000Y-116070560D01*
X146304000Y-116070560D01*
X146068683Y-116114838D01*
X146052901Y-116124993D01*
X146047890Y-116121569D01*
X145796000Y-116070560D01*
X145034000Y-116070560D01*
X144798683Y-116114838D01*
X144782901Y-116124993D01*
X144777890Y-116121569D01*
X144526000Y-116070560D01*
X143764000Y-116070560D01*
X143528683Y-116114838D01*
X143512901Y-116124993D01*
X143507890Y-116121569D01*
X143256000Y-116070560D01*
X142494000Y-116070560D01*
X142258683Y-116114838D01*
X142242901Y-116124993D01*
X142237890Y-116121569D01*
X141986000Y-116070560D01*
X141224000Y-116070560D01*
X140988683Y-116114838D01*
X140772559Y-116253910D01*
X140627569Y-116466110D01*
X140576560Y-116718000D01*
X140576560Y-118164000D01*
X138811000Y-118164000D01*
X138491459Y-118227561D01*
X138220566Y-118408566D01*
X135039111Y-121590021D01*
X134620000Y-121506655D01*
X134046511Y-121620729D01*
X133560330Y-121945585D01*
X133235474Y-122431766D01*
X133121400Y-123005255D01*
X132207000Y-123005255D01*
X132207000Y-115062000D01*
X158331132Y-115062000D01*
X158550000Y-115280868D01*
X158550000Y-115280868D01*
G37*
X158550000Y-115280868D02*
X158550000Y-121920000D01*
X158577446Y-122057979D01*
X158382036Y-121839268D01*
X157854791Y-121585291D01*
X157839026Y-121582642D01*
X157607000Y-121703783D01*
X157607000Y-123063000D01*
X157627000Y-123063000D01*
X157627000Y-123317000D01*
X157607000Y-123317000D01*
X157607000Y-124676217D01*
X157839026Y-124797358D01*
X157854791Y-124794709D01*
X158382036Y-124540732D01*
X158623000Y-124271035D01*
X158623000Y-125020000D01*
X132207000Y-125020000D01*
X132207000Y-123005255D01*
X133121400Y-123005255D01*
X133121400Y-123374745D01*
X133235474Y-123948234D01*
X133560330Y-124434415D01*
X134046511Y-124759271D01*
X134620000Y-124873345D01*
X135193489Y-124759271D01*
X135679670Y-124434415D01*
X135890000Y-124119634D01*
X136100330Y-124434415D01*
X136586511Y-124759271D01*
X137160000Y-124873345D01*
X137733489Y-124759271D01*
X138219670Y-124434415D01*
X138430000Y-124119634D01*
X138640330Y-124434415D01*
X139126511Y-124759271D01*
X139700000Y-124873345D01*
X140273489Y-124759271D01*
X140759670Y-124434415D01*
X140970000Y-124119634D01*
X141180330Y-124434415D01*
X141666511Y-124759271D01*
X142240000Y-124873345D01*
X142813489Y-124759271D01*
X143299670Y-124434415D01*
X143510000Y-124119634D01*
X143720330Y-124434415D01*
X144206511Y-124759271D01*
X144780000Y-124873345D01*
X145353489Y-124759271D01*
X145839670Y-124434415D01*
X146050000Y-124119634D01*
X146260330Y-124434415D01*
X146746511Y-124759271D01*
X147320000Y-124873345D01*
X147893489Y-124759271D01*
X148379670Y-124434415D01*
X148590000Y-124119634D01*
X148800330Y-124434415D01*
X149286511Y-124759271D01*
X149860000Y-124873345D01*
X150433489Y-124759271D01*
X150919670Y-124434415D01*
X151130000Y-124119634D01*
X151340330Y-124434415D01*
X151826511Y-124759271D01*
X152400000Y-124873345D01*
X152973489Y-124759271D01*
X153459670Y-124434415D01*
X153670000Y-124119634D01*
X153880330Y-124434415D01*
X154366511Y-124759271D01*
X154940000Y-124873345D01*
X155513489Y-124759271D01*
X155999670Y-124434415D01*
X156206461Y-124124931D01*
X156577964Y-124540732D01*
X157105209Y-124794709D01*
X157120974Y-124797358D01*
X157353000Y-124676217D01*
X157353000Y-123317000D01*
X157333000Y-123317000D01*
X157333000Y-123063000D01*
X157353000Y-123063000D01*
X157353000Y-121703783D01*
X157120974Y-121582642D01*
X157105209Y-121585291D01*
X156577964Y-121839268D01*
X156206461Y-122255069D01*
X155999670Y-121945585D01*
X155775000Y-121795465D01*
X155775000Y-121031000D01*
X155711439Y-120711459D01*
X155530434Y-120440566D01*
X153966868Y-118877000D01*
X154019250Y-118877000D01*
X154178000Y-118718250D01*
X154178000Y-117607000D01*
X154158000Y-117607000D01*
X154158000Y-117353000D01*
X154178000Y-117353000D01*
X154178000Y-116241750D01*
X154432000Y-116241750D01*
X154432000Y-117353000D01*
X154452000Y-117353000D01*
X154452000Y-117607000D01*
X154432000Y-117607000D01*
X154432000Y-118718250D01*
X154590750Y-118877000D01*
X154812309Y-118877000D01*
X155007331Y-118796219D01*
X155069110Y-118838431D01*
X155321000Y-118889440D01*
X156083000Y-118889440D01*
X156318317Y-118845162D01*
X156534441Y-118706090D01*
X156679431Y-118493890D01*
X156730440Y-118242000D01*
X156730440Y-116718000D01*
X156686162Y-116482683D01*
X156547090Y-116266559D01*
X156334890Y-116121569D01*
X156083000Y-116070560D01*
X155321000Y-116070560D01*
X155085683Y-116114838D01*
X155008726Y-116164359D01*
X154812309Y-116083000D01*
X154590750Y-116083000D01*
X154432000Y-116241750D01*
X154178000Y-116241750D01*
X154019250Y-116083000D01*
X153797691Y-116083000D01*
X153681737Y-116131030D01*
X153667890Y-116121569D01*
X153416000Y-116070560D01*
X152654000Y-116070560D01*
X152418683Y-116114838D01*
X152402901Y-116124993D01*
X152397890Y-116121569D01*
X152146000Y-116070560D01*
X151384000Y-116070560D01*
X151148683Y-116114838D01*
X151132901Y-116124993D01*
X151127890Y-116121569D01*
X150876000Y-116070560D01*
X150114000Y-116070560D01*
X149878683Y-116114838D01*
X149862901Y-116124993D01*
X149857890Y-116121569D01*
X149606000Y-116070560D01*
X148844000Y-116070560D01*
X148608683Y-116114838D01*
X148592901Y-116124993D01*
X148587890Y-116121569D01*
X148336000Y-116070560D01*
X147574000Y-116070560D01*
X147338683Y-116114838D01*
X147322901Y-116124993D01*
X147317890Y-116121569D01*
X147066000Y-116070560D01*
X146304000Y-116070560D01*
X146068683Y-116114838D01*
X146052901Y-116124993D01*
X146047890Y-116121569D01*
X145796000Y-116070560D01*
X145034000Y-116070560D01*
X144798683Y-116114838D01*
X144782901Y-116124993D01*
X144777890Y-116121569D01*
X144526000Y-116070560D01*
X143764000Y-116070560D01*
X143528683Y-116114838D01*
X143512901Y-116124993D01*
X143507890Y-116121569D01*
X143256000Y-116070560D01*
X142494000Y-116070560D01*
X142258683Y-116114838D01*
X142242901Y-116124993D01*
X142237890Y-116121569D01*
X141986000Y-116070560D01*
X141224000Y-116070560D01*
X140988683Y-116114838D01*
X140772559Y-116253910D01*
X140627569Y-116466110D01*
X140576560Y-116718000D01*
X140576560Y-118164000D01*
X138811000Y-118164000D01*
X138491459Y-118227561D01*
X138220566Y-118408566D01*
X135039111Y-121590021D01*
X134620000Y-121506655D01*
X134046511Y-121620729D01*
X133560330Y-121945585D01*
X133235474Y-122431766D01*
X133121400Y-123005255D01*
X132207000Y-123005255D01*
X132207000Y-115062000D01*
X158331132Y-115062000D01*
X158550000Y-115280868D01*
M02*
