G04 #@! TF.FileFunction,Legend,Top*
%FSLAX46Y46*%
G04 Gerber Fmt 4.6, Leading zero omitted, Abs format (unit mm)*
G04 Created by KiCad (PCBNEW 4.0.0-rc2-1-stable) date Thursday, January 28, 2016 'pmt' 11:31:30 pm*
%MOMM*%
G01*
G04 APERTURE LIST*
%ADD10C,0.100000*%
%ADD11C,0.150000*%
%ADD12C,0.381000*%
%ADD13C,0.254000*%
G04 APERTURE END LIST*
D10*
D11*
X161290000Y-124460000D02*
X133350000Y-124460000D01*
X133350000Y-124460000D02*
X133350000Y-121920000D01*
X133350000Y-121920000D02*
X161290000Y-121920000D01*
X164110000Y-124740000D02*
X162560000Y-124740000D01*
X161290000Y-124460000D02*
X161290000Y-121920000D01*
X162560000Y-121640000D02*
X164110000Y-121640000D01*
X164110000Y-121640000D02*
X164110000Y-124740000D01*
X156210000Y-109280000D02*
X156210000Y-116780000D01*
X140970000Y-109280000D02*
X140970000Y-116780000D01*
X156210000Y-109280000D02*
X140970000Y-109280000D01*
X140970000Y-112395000D02*
X142240000Y-112395000D01*
X142240000Y-112395000D02*
X142240000Y-113665000D01*
X142240000Y-113665000D02*
X140970000Y-113665000D01*
X140970000Y-116780000D02*
X156210000Y-116780000D01*
D12*
X164020000Y-96330000D02*
X156020000Y-96330000D01*
X156020000Y-96330000D02*
X156020000Y-104330000D01*
X156020000Y-104330000D02*
X164020000Y-104330000D01*
X164020000Y-104330000D02*
X164020000Y-96330000D01*
X152590000Y-96330000D02*
X144590000Y-96330000D01*
X144590000Y-96330000D02*
X144590000Y-104330000D01*
X144590000Y-104330000D02*
X152590000Y-104330000D01*
X152590000Y-104330000D02*
X152590000Y-96330000D01*
X141160000Y-96330000D02*
X133160000Y-96330000D01*
X133160000Y-96330000D02*
X133160000Y-104330000D01*
X133160000Y-104330000D02*
X141160000Y-104330000D01*
X141160000Y-104330000D02*
X141160000Y-96330000D01*
D11*
X164282381Y-120118095D02*
X163282381Y-120118095D01*
X163282381Y-119737142D01*
X163330000Y-119641904D01*
X163377619Y-119594285D01*
X163472857Y-119546666D01*
X163615714Y-119546666D01*
X163710952Y-119594285D01*
X163758571Y-119641904D01*
X163806190Y-119737142D01*
X163806190Y-120118095D01*
X164282381Y-118594285D02*
X164282381Y-119165714D01*
X164282381Y-118880000D02*
X163282381Y-118880000D01*
X163425238Y-118975238D01*
X163520476Y-119070476D01*
X163568095Y-119165714D01*
X147828095Y-110958381D02*
X147828095Y-111767905D01*
X147875714Y-111863143D01*
X147923333Y-111910762D01*
X148018571Y-111958381D01*
X148209048Y-111958381D01*
X148304286Y-111910762D01*
X148351905Y-111863143D01*
X148399524Y-111767905D01*
X148399524Y-110958381D01*
X149399524Y-111958381D02*
X148828095Y-111958381D01*
X149113809Y-111958381D02*
X149113809Y-110958381D01*
X149018571Y-111101238D01*
X148923333Y-111196476D01*
X148828095Y-111244095D01*
D13*
X159270096Y-105869619D02*
X159270096Y-104853619D01*
X159657143Y-104853619D01*
X159753905Y-104902000D01*
X159802286Y-104950381D01*
X159850667Y-105047143D01*
X159850667Y-105192286D01*
X159802286Y-105289048D01*
X159753905Y-105337429D01*
X159657143Y-105385810D01*
X159270096Y-105385810D01*
X160237715Y-104950381D02*
X160286096Y-104902000D01*
X160382858Y-104853619D01*
X160624762Y-104853619D01*
X160721524Y-104902000D01*
X160769905Y-104950381D01*
X160818286Y-105047143D01*
X160818286Y-105143905D01*
X160769905Y-105289048D01*
X160189334Y-105869619D01*
X160818286Y-105869619D01*
X147840096Y-105869619D02*
X147840096Y-104853619D01*
X148227143Y-104853619D01*
X148323905Y-104902000D01*
X148372286Y-104950381D01*
X148420667Y-105047143D01*
X148420667Y-105192286D01*
X148372286Y-105289048D01*
X148323905Y-105337429D01*
X148227143Y-105385810D01*
X147840096Y-105385810D01*
X148759334Y-104853619D02*
X149388286Y-104853619D01*
X149049620Y-105240667D01*
X149194762Y-105240667D01*
X149291524Y-105289048D01*
X149339905Y-105337429D01*
X149388286Y-105434190D01*
X149388286Y-105676095D01*
X149339905Y-105772857D01*
X149291524Y-105821238D01*
X149194762Y-105869619D01*
X148904477Y-105869619D01*
X148807715Y-105821238D01*
X148759334Y-105772857D01*
X136410096Y-105869619D02*
X136410096Y-104853619D01*
X136797143Y-104853619D01*
X136893905Y-104902000D01*
X136942286Y-104950381D01*
X136990667Y-105047143D01*
X136990667Y-105192286D01*
X136942286Y-105289048D01*
X136893905Y-105337429D01*
X136797143Y-105385810D01*
X136410096Y-105385810D01*
X137861524Y-105192286D02*
X137861524Y-105869619D01*
X137619620Y-104805238D02*
X137377715Y-105530952D01*
X138006667Y-105530952D01*
M02*
