G04 #@! TF.FileFunction,Soldermask,Top*
%FSLAX46Y46*%
G04 Gerber Fmt 4.6, Leading zero omitted, Abs format (unit mm)*
G04 Created by KiCad (PCBNEW 4.0.1-stable) date 2/4/2016 3:45:24 PM*
%MOMM*%
G01*
G04 APERTURE LIST*
%ADD10C,0.100000*%
%ADD11R,2.127200X2.432000*%
%ADD12O,2.127200X2.432000*%
%ADD13R,1.162000X1.924000*%
%ADD14C,2.800000*%
%ADD15C,2.900000*%
%ADD16R,3.400000X1.400000*%
%ADD17C,2.398980*%
%ADD18C,2.701240*%
G04 APERTURE END LIST*
D10*
D11*
X162560000Y-123190000D03*
D12*
X160020000Y-123190000D03*
X157480000Y-123190000D03*
X154940000Y-123190000D03*
X152400000Y-123190000D03*
X149860000Y-123190000D03*
X147320000Y-123190000D03*
X144780000Y-123190000D03*
X142240000Y-123190000D03*
X139700000Y-123190000D03*
X137160000Y-123190000D03*
X134620000Y-123190000D03*
D13*
X141605000Y-117480000D03*
X142875000Y-117480000D03*
X144145000Y-117480000D03*
X145415000Y-117480000D03*
X146685000Y-117480000D03*
X147955000Y-117480000D03*
X149225000Y-117480000D03*
X150495000Y-117480000D03*
X151765000Y-117480000D03*
X153035000Y-117480000D03*
X154305000Y-117480000D03*
X155702000Y-117480000D03*
X141605000Y-108580000D03*
X142875000Y-108580000D03*
X144145000Y-108580000D03*
X145415000Y-108580000D03*
X146685000Y-108580000D03*
X147955000Y-108580000D03*
X149225000Y-108580000D03*
X150495000Y-108580000D03*
X151765000Y-108580000D03*
X153035000Y-108580000D03*
X154305000Y-108580000D03*
X155575000Y-108580000D03*
D14*
X160020000Y-73660000D03*
D15*
X157480000Y-71120000D03*
X162560000Y-71120000D03*
X162560000Y-76200000D03*
X157480000Y-76200000D03*
D14*
X149860000Y-73660000D03*
D15*
X147320000Y-71120000D03*
X152400000Y-71120000D03*
X152400000Y-76200000D03*
X147320000Y-76200000D03*
D14*
X138430000Y-73660000D03*
D15*
X135890000Y-71120000D03*
X140970000Y-71120000D03*
X140970000Y-76200000D03*
X135890000Y-76200000D03*
D16*
X161036000Y-107936000D03*
X161036000Y-112536000D03*
X143510000Y-98030000D03*
X143510000Y-102630000D03*
X136144000Y-108116340D03*
X136144000Y-112716340D03*
D17*
X160020000Y-80210660D03*
D18*
X160020000Y-105209340D03*
D17*
X149860000Y-80210660D03*
D18*
X149860000Y-105209340D03*
D17*
X137160000Y-80210660D03*
D18*
X137160000Y-105209340D03*
M02*
