M48
;DRILL file {KiCad (2015-08-27 BZR 6130, Git 51a6d38)-product} date 1/29/2016 1:51:46 AM
;FORMAT={-:-/ absolute / inch / decimal}
FMAT,2
INCH,TZ
T1C0.039
T2C0.040
T3C0.047
T4C0.059
T5C0.063
%
G90
G05
M72
T1
X5.4Y-3.1579
X5.9Y-3.1579
X6.3Y-3.1579
T2
X5.3Y-4.85
X5.4Y-4.85
X5.5Y-4.85
X5.6Y-4.85
X5.7Y-4.85
X5.8Y-4.85
X5.9Y-4.85
X6.Y-4.85
X6.1Y-4.85
X6.2Y-4.85
X6.3Y-4.85
X6.4Y-4.85
T3
X5.4Y-4.1421
X5.9Y-4.1421
X6.3Y-4.1421
T4
X5.45Y-2.9
X5.9Y-2.9
X6.3Y-2.9
T5
X5.35Y-2.8
X5.35Y-3.
X5.55Y-2.8
X5.55Y-3.
X5.8Y-2.8
X5.8Y-3.
X6.Y-2.8
X6.Y-3.
X6.2Y-2.8
X6.2Y-3.
X6.4Y-2.8
X6.4Y-3.
T0
M30
