M48
;DRILL file {KiCad (2015-08-27 BZR 6130, Git 51a6d38)-product} date 1/28/2016 10:50:53 PM
;FORMAT={-:-/ absolute / inch / decimal}
FMAT,2
INCH,TZ
T1C0.040
T2C0.059
T3C0.063
%
G90
G05
M72
T1
X5.3Y-4.85
X5.4Y-4.85
X5.5Y-4.85
X5.6Y-4.85
X5.7Y-4.85
X5.8Y-4.85
X5.9Y-4.85
X6.Y-4.85
X6.1Y-4.85
X6.2Y-4.85
X6.3Y-4.85
X6.4Y-4.85
T2
X5.4Y-3.95
X5.85Y-3.95
X6.3Y-3.95
T3
X5.3Y-3.85
X5.3Y-4.05
X5.5Y-3.85
X5.5Y-4.05
X5.75Y-3.85
X5.75Y-4.05
X5.95Y-3.85
X5.95Y-4.05
X6.2Y-3.85
X6.2Y-4.05
X6.4Y-3.85
X6.4Y-4.05
T0
M30
